<?xml version="1.0" encoding="utf-8"?>
<!-- Generator: Adobe Illustrator 23.0.1, SVG Export Plug-In . SVG Version: 6.00 Build 0)  -->
<svg version="1.1" id="Layer_1" xmlns="http://www.w3.org/2000/svg" xmlns:xlink="http://www.w3.org/1999/xlink" x="0px" y="0px"
	 viewBox="0 0 1366 768" style="enable-background:new 0 0 1366 768;" xml:space="preserve">
<style type="text/css">
	.st0{display:none;fill:#26AA00;}
	.st1{display:none;fill:none;stroke:#26AA00;stroke-miterlimit:10;}
	.st2{fill:#26AA00;}
	.st3{display:none;fill:#261800;}
	.st4{fill:#261800;}
	.st5{display:none;}
	.st6{display:inline;}
	.st7{fill:#3B8D74;}
	.st8{fill:none;}
	.st9{fill:#A98743;}
	.st10{fill:#F7C548;}
	.st11{fill:#82D169;}
	.st12{fill:#84EA63;}
	.st13{fill:#F47800;}
	.st14{fill:#D400C5;}
	.st15{fill:#A98743;stroke:#A98743;stroke-miterlimit:10;}
	.st16{fill:#4A1700;stroke:#261800;stroke-miterlimit:10;}
	.st17{fill:#255957;}
</style>
<image style="display:none;overflow:visible;enable-background:new    ;" width="1673" height="2155" xlink:href="BD997553FBD92933.jpeg"  transform="matrix(0.3312 0 0 0.3219 876.0668 340.9011)">
</image>
<path class="st0" d="M944.4,159l23.9-23c1-0.9,2.5-0.2,2.5,1.1c-0.4,6.7-1.4,20.3-3,23.4c-0.1,0.2,0.6,4.9,0.5,5l-1-4.5
	c-1.2,1-0.2,2.9,1.2,2.5l0,0c0.6-0.1,1.2,0.1,1.5,0.7l0.3,0.6c0.7,1.1,2.4,0.9,2.7-0.4c0.7-2.9,1.6-6.7,2.5-8.9
	c1.5-3.8,3-21.4,5.2-22.1c2-0.7,4-4.8,13.2-6.1c0.8-0.1,2.8,0.6,2.5-0.2c-6.5-25.7-3.3-5.5,1.6,1.4v19L944.4,159z"/>
<path class="st0" d="M964.1,161.4c0,0,28.2,9.4,31.1,8.4c4.3-1.4,21-5.2,16.5-4.2L964.1,161.4z"/>
<path class="st1" d="M982,87.5c-1.8,6.2-22,19.1-22,19.1l7.6-26.6c5-0.3,18.1,11.3,14,6.2C981.3,85.9,982.2,87.1,982,87.5z"/>
<path class="st2" d="M875,26L875,26L875,26z"/>
<path class="st3" d="M823.8,107.4c0,0,32.6-2.9,35.7-5.2L823.8,107.4z"/>
<path class="st4" d="M853.4,22.4L853.4,22.4z"/>
<path class="st4" d="M857.3,26.2L857.3,26.2z"/>
<path class="st2" d="M668.2,38.3"/>
<g class="st5">
	<g class="st6">
		<path class="st7" d="M294.2,405.9c0.7,1.6,1.4,3.2,2.1,4.8c-0.9,0.7-1.7,1.4-2.5,2.1c-2.1-5.2-4.2-10.4-6.3-15.6
			c1-0.8,2-1.6,2.9-2.4c6.3,1.7,12.7,3.3,19,4.9c-0.9,0.7-1.7,1.4-2.5,2.2c-2-0.5-4-1-6-1.5C298.6,402.1,296.4,404,294.2,405.9z
			 M299.1,399.7c-1.8-0.5-3.7-0.9-5.5-1.4c-1.2-0.3-2.3-0.7-3.3-1.1c0,0,0,0-0.1,0c0.5,0.8,0.9,1.7,1.3,2.6c0.6,1.5,1.2,3,1.8,4.5
			C295.3,402.8,297.2,401.2,299.1,399.7z"/>
		<path class="st7" d="M298.7,386.7c0.8-0.7,1.6-1.4,2.4-2c4.4,3.6,8.8,7.2,13.3,10.7c-0.8,0.7-1.6,1.4-2.4,2
			C307.5,393.9,303.1,390.3,298.7,386.7z"/>
		<path class="st7" d="M310.2,383.9c2.1,0.7,4.2,1.5,6.3,2.2c1.4,0.5,2.7,1,3.9,1.5c0,0,0,0,0.1-0.1c-0.6-1-1.2-2.1-1.7-3.3
			c-0.8-1.8-1.7-3.7-2.5-5.5c0.6-0.6,1.3-1.1,2-1.7c2.1,0.6,4.3,1.2,6.5,1.8c1.5,0.5,2.9,0.9,4.1,1.3c0,0,0,0,0.1-0.1
			c-0.7-0.9-1.3-2-2-3.2c-0.9-1.7-1.8-3.5-2.7-5.2c0.8-0.7,1.5-1.4,2.2-2c1.6,3.6,3.3,7.2,5,10.8c-0.7,0.6-1.4,1.3-2.1,1.9
			c-2.1-0.5-4.2-1.1-6.3-1.7c-1.5-0.4-2.7-0.8-4.1-1.4c0,0,0,0,0,0c0.8,1.2,1.3,2.2,1.8,3.4c0.8,1.7,1.5,3.5,2.3,5.2
			c-0.7,0.6-1.4,1.2-2.1,1.9c-4.3-1.3-8.7-2.5-13-3.9C308.6,385.3,309.4,384.6,310.2,383.9z"/>
		<path class="st7" d="M344.5,368.1c-0.5-0.2-0.9-0.5-1.3-0.7c0,0,0,0-0.1,0.1c0,1.2-0.6,2.9-2.4,4.6c-2.5,2.3-5.1,2.5-6.4,1.5
			c-2.2-1.7-0.7-5.1,4-9.5c-0.1,0-0.1-0.1-0.2-0.1c-0.7-0.6-2.4-1.4-4.9,1c-1.1,1.1-2.1,2.4-2.5,3.5c-0.5-0.1-1.1-0.3-1.6-0.4
			c0.5-1.3,1.8-3,3.3-4.4c3.8-3.5,6.5-2.9,8.3-1.5c1.1,0.9,2.2,1.7,3.4,2.6c0.8,0.6,1.6,1.1,2.3,1.5
			C345.8,366.9,345.1,367.5,344.5,368.1z M339.5,364.9c-2.4,2.2-4.9,5.1-3.2,6.5c1.1,0.8,2.5,0.3,3.7-0.7c1.6-1.5,1.9-3.1,1.5-4
			c-0.1-0.2-0.2-0.4-0.4-0.5C340.5,365.7,340,365.3,339.5,364.9z"/>
		<path class="st7" d="M341.6,355.3c2.6,0.5,5.3,1,7.9,1.5c0.9,0.2,1.9,0.4,2.6,0.6c0,0,0,0,0.1-0.1c-0.3-0.6-0.7-1.4-1.1-2.2
			c-1-2.1-1.9-4.2-2.9-6.4c0.8-0.8,1.5-1.5,2.3-2.3c1,2.7,2.1,5.4,3.1,8.1c1.5,3.9,2.1,6.1,1.6,8.4c-0.4,1.6-1.1,2.9-1.6,3.5
			c-0.6-0.2-1.3-0.3-1.9-0.5c0.4-0.6,0.9-1.5,1.1-2.5c0.2-0.9,0.3-2.1,0-3.2c-0.1-0.2-0.1-0.4-0.2-0.5c-0.1-0.1-0.3-0.1-0.6-0.2
			c-4.2-0.6-8.5-1.3-12.7-2C340,356.8,340.8,356,341.6,355.3z"/>
		<path class="st7" d="M359.4,350.3c1-0.4,2.4-1.4,3.5-2.5c1.5-1.6,1.7-2.9,0.9-3.4c-0.8-0.6-1.8-0.2-3.8,1.1
			c-2.7,1.8-4.6,2.2-5.6,1.4c-1.4-1.1-1.1-3.5,1.4-6.2c1.2-1.2,2.4-2.1,3.4-2.6c0.2,0.5,0.4,1,0.6,1.4c-0.7,0.3-1.8,1-2.9,2.1
			c-1.2,1.3-1.4,2.4-0.7,2.9c0.7,0.5,1.8,0.1,3.7-1.2c2.6-1.7,4.4-2.3,5.7-1.3c1.6,1.1,1.1,3.7-1.6,6.6c-1.3,1.4-2.7,2.4-3.9,3
			C359.9,351.2,359.6,350.8,359.4,350.3z"/>
		<path class="st7" d="M381.9,327.9c-0.4-0.2-0.9-0.4-1.3-0.6c0,0,0,0-0.1,0.1c0.1,1.2-0.5,3.1-2.1,5c-2.2,2.7-4.7,3.1-6,2.2
			c-2.2-1.5-0.9-5.1,3.4-10.2c-0.1,0-0.1-0.1-0.2-0.1c-0.7-0.5-2.3-1.1-4.6,1.5c-1,1.2-1.9,2.6-2.3,3.8c-0.5-0.1-1-0.2-1.5-0.2
			c0.5-1.4,1.5-3.2,2.9-4.8c3.4-4,6-3.7,7.8-2.5c1.1,0.8,2.2,1.5,3.3,2.3c0.8,0.5,1.5,1,2.3,1.2
			C383.1,326.5,382.5,327.2,381.9,327.9z M377.1,325.2c-2.2,2.6-4.4,5.7-2.7,7c1.1,0.8,2.4,0.1,3.5-1.1c1.5-1.7,1.6-3.4,1.2-4.3
			c-0.1-0.2-0.3-0.4-0.4-0.5C378.1,325.9,377.6,325.5,377.1,325.2z"/>
		<path class="st7" d="M377.7,311.4c0.5,0.4,0.5,1.3-0.3,2.2c-0.7,0.9-1.6,1.2-2.2,0.8c-0.5-0.4-0.5-1.3,0.2-2.2
			C376.3,311.4,377.2,311.1,377.7,311.4z M386.8,321.9c-3-2-5.9-4-8.8-6c0.7-0.8,1.3-1.6,2-2.5c2.9,2,5.8,4,8.8,6
			C388.1,320.2,387.4,321.1,386.8,321.9z"/>
		<path class="st7" d="M385.6,310.9c-0.9-0.6-1.7-1-2.4-1.5c0.6-0.7,1.1-1.5,1.7-2.2c0.5,0.3,1,0.5,1.5,0.8c0,0,0,0,0-0.1
			c-0.2-1.3,0-3.1,1.8-5.5c1.4-1.9,3.2-3,4.7-2.9c0,0,0,0,0-0.1c-0.2-0.8-0.1-1.6,0-2.4c0.2-1.1,0.7-2.2,1.7-3.6
			c1.4-2,4.1-4.5,7.1-2.7c1.7,1,3.4,2.1,5.1,3.1c-0.6,0.9-1.2,1.8-1.8,2.8c-1.6-1-3.3-2-4.9-3c-1.7-1-3.4-0.6-4.9,1.6
			c-1.1,1.5-1.3,3.1-0.8,4.1c0.1,0.3,0.4,0.5,0.6,0.7c1.8,1.1,3.6,2.3,5.4,3.4c-0.6,0.9-1.2,1.8-1.8,2.6c-1.8-1.1-3.5-2.2-5.2-3.4
			c-1.4-0.9-3.1-0.5-4.6,1.4c-1.2,1.6-1.3,3.3-0.8,4.3c0.1,0.3,0.4,0.5,0.6,0.7c1.8,1.2,3.5,2.3,5.3,3.5c-0.6,0.9-1.3,1.7-1.9,2.5
			C389.8,313.7,387.7,312.3,385.6,310.9z"/>
		<path class="st7" d="M401.6,274.9c0.6-1,1.2-1.9,1.8-2.9c1.8,1,3.5,2,5.3,3c0,0,0,0,0-0.1c-0.1-0.7-0.1-1.7,0.2-2.7
			c0.2-1,0.7-2.2,1.4-3.3c1.3-2.2,4-5.4,6.9-3.9c1.7,0.9,3.4,1.8,5,2.6c-0.6,1-1.1,2.1-1.7,3.1c-1.6-0.9-3.3-1.7-4.9-2.6
			c-1.4-0.7-3.1-0.3-4.7,2.5c-1.1,2-1.3,3.9-0.8,4.9c0.1,0.3,0.3,0.5,0.6,0.6c1.7,1,3.4,1.9,5.2,2.9c-0.6,1-1.2,2-1.8,3
			C409.9,279.7,405.7,277.3,401.6,274.9z"/>
		<path class="st7" d="M416.1,253.4c0.5,0.3,0.5,1.2-0.1,2.5c-0.6,1.1-1.5,1.7-2,1.4c-0.5-0.3-0.5-1.3,0.1-2.4
			C414.7,253.7,415.6,253.1,416.1,253.4z M424.9,262.4c-2.8-1.4-5.6-2.9-8.4-4.3c0.6-1,1.1-2.1,1.7-3.2c2.8,1.4,5.6,2.8,8.4,4.2
			C426,260.3,425.5,261.4,424.9,262.4z"/>
		<path class="st7" d="M428.6,233.6c0.5,0.4,1.2,0.7,2.1,1.1c1.6,0.7,3.1,1.4,4.7,2c1.9,0.8,2.6,2.2,2.5,4.4c-0.1,2.3-1,5.1-2.1,7.6
			c-1,2.3-2.4,4.7-3.6,6c-0.3-0.5-0.5-0.9-0.8-1.4c0.9-1.1,2.2-2.9,3.2-5.3c1.6-3.6,2-6.6-0.1-7.5c-0.3-0.1-0.6-0.3-0.9-0.4
			c0,0,0,0.1,0,0.1c0.3,1.4,0,3.8-1.4,6.7c-2.2,4.8-5.5,7.1-7.8,6c-2.8-1.4-2.4-6.1-0.3-10.4c1.5-3.2,3.1-4.7,4.1-5.2
			c0,0,0-0.1,0-0.1c-0.4-0.2-0.8-0.5-1.1-0.7C427.7,235.6,428.2,234.6,428.6,233.6z M430.2,238.6c-0.2-0.1-0.5-0.2-0.8-0.1
			c-1.1,0.3-2.6,1.6-3.8,4.1c-1.5,3.2-1.5,6.1,0.5,7c1.6,0.8,3.9-0.4,5.6-4.1c1-2.1,1.3-4.4,0.6-5.6c-0.2-0.3-0.4-0.5-0.7-0.6
			C431.2,239,430.7,238.8,430.2,238.6z"/>
		<path class="st7" d="M427.4,226.3c0.5-1.2,1-2.3,1.5-3.5c1.7,0.7,3.3,1.4,5,2c0,0,0-0.1,0-0.1c-0.2-0.8-0.1-1.8,0-3
			c0.2-1.2,0.6-2.5,1.1-3.9c1.1-2.7,3.4-7,6.1-6c1.6,0.6,3.1,1.1,4.7,1.6c-0.5,1.3-0.9,2.6-1.4,3.9c-1.5-0.6-3-1.1-4.6-1.6
			c-1.3-0.5-2.8,0.4-4.2,3.9c-1,2.4-1.1,4.5-0.5,5.5c0.1,0.3,0.3,0.4,0.6,0.5c1.6,0.6,3.2,1.3,4.9,1.9c-0.5,1.2-1,2.5-1.5,3.7
			C435.2,229.6,431.3,228,427.4,226.3z"/>
	</g>
</g>
<rect x="215.5" y="309.4" class="st8" width="55.7" height="45.4"/>
<polygon class="st8" points="308.6,128.9 390.7,128.9 390.7,128.9 "/>
<g>
	<path class="st9" d="M665.8,144.7c0-1-0.1-1.9-0.2-2.4c-0.1-0.6-0.3-1.1-0.6-1.6c-0.4-0.5-0.9-1.1-1.6-1.5c0,0,0,0,0,0
		c-0.7-0.4-1.5-0.7-2.5-0.4c-0.7,0.2-1.5,0.7-2.3,1.6c-0.5,0.6-1.3,1.1-2.2,1.6c-2,1.1-4.6,2-6.7,2.5c-0.8,0.2-1.5,0.3-2,0.4
		c-0.3,0-0.6,0-0.8,0c-0.3-0.1-0.5-0.2-0.4-0.4c1.5-4.2,2.3-10.2,0-10.8c-2.3-0.6-86.6,28.5-88,29c0,0,0,0,0,0l-8-11.3c0,0,0,0,0,0
		c0-0.3,1.1-17-9.8-8.5c-10.8,8.4,2,11.9,2.3,11.9c0,0,0,0,0,0l6.9,11.3v0.1c-2.7,8.4-19.8,10.2-21.7,4.9c-3.9-1-7.4-1.4-10.5-1.4
		c-23.3,0-27.5,23.8-27.6,23.8c12.1,11.9,43.9,10.5,43.9,10.5l6.2,20.5c-0.2,7.2,2.6,25.2,5.9,43.1c4,22,8.6,43.9,9,45v0
		c0.1,1,0.3,2.8,0.6,5.9c0.6,6.2-1.7,42-5.8,60.2c-2.1,9.6-5.2,14.8-9.7,17.9c-4,2.7-9.1,3.8-15.6,4.9c-5.3,0.9-9.7,4.8-13.6,10.4
		c-6.3,9.1-11.3,22.5-16.3,34.4c-1.2,2.9-3.2,5.6-5.9,8.1c-4.3,4-10.3,7.4-17.4,10.5c0,0-0.1,0-0.1,0c-6.3,2.6-13.5,5-21.2,7.1
		c-6.4,1.8-13.2,3.4-20.2,4.9c0,0,0,0-0.1,0c-8.4,1.8-17,3.4-25.6,5c0,0,0,0-0.1,0c-0.1,0-0.2,0-0.3,0.1c-4.6,0.8-8.9,2.4-12.8,4.5
		c0,0-0.1,0-0.1,0c-2,1.1-4,2.3-5.8,3.6c0,0,0,0,0,0c-3.9,2.7-7.4,6-10.7,9.6c-7.1,7.8-13,17.1-18,26.5c-9,17-15,33.9-19.2,41
		c-5.4,9.1-13.9,13.8-19.9,16.1c-3,1.2-17.6-13-29,6.1c-4.4,7.4-7.6,11.5-9.9,13.7c-2,1.8-0.6,4.1,1.1,6.2c0.4,0.5,7.5,2.8,10.5,4
		c2.3,4,22.4-3.4,22.4-3.4c8.6-4,8.6-15.9,8.6-15.9c12.1-5.1,15-11.4,20.1-13.6c4.7-2.1,17.5-17.8,19.8-20.6l0,0
		c0.1-0.2,0.2-0.3,0.3-0.4c0,0,0,0,0,0c-1,8.3-2,15.4-3.1,21.5c-2.6,15.1-5.1,24-6.7,30.1c-2.3,8.5-16.9,26-17.8,29.5
		c-3.1,11.9,4.6,107.5,4.6,108.5c0,1.7,9.4,10,14.4,14.3c1.9,1.7,4.5,1.2,5.8-1c0.3-0.5,0.5-0.9,0.6-1.4
		c0.6-2.3,3.7-103.8,3.3-120.4c-0.1-7.3,5.5-32.1,15.7-34.8c0,0,5.6,25,1.1,37.1c-1.6,4.3,2.9,104.8,2.3,105.1
		c-0.5,1.5,12.2,13.5,15.4,16.5c0.5,0.5,1.1,0.8,1.8,0.9c1.8,0.4,5.3,0.9,5.3-0.2c0-1.5,1.4-96.2,1.6-105.3
		c0.1-0.4,14-27.3,14.1-27.7c0,0-0.6-0.1,4.6-11.5c-0.8,0.3-1.8,0.4-2.8,0.3c-0.9,0-2-0.2-2.7-0.8c-6-5.8-31.3-30.8-37.8-40
		c-0.9-1.2-0.2-2.9,1.2-3.3c7.5-2.1,28.1-7.3,30.8-1.5c0.1,0.3,0.4,0.6,0.7,0.7c5.5,2.3,32.5,6.3,34.1,11.7
		c18.4-8.9,48.5-11.2,51,0.2c0.9,3.9,12.1,153,12.1,157.6s8,19.5,8,19.5s3.5,0,6,0c1.7,0,3.2-1.1,3.6-2.7
		c5.5-18.4,15.8-109.9,17.5-129.6c4.8-55,6.5-33.3,4.8-26.8c-2.6,9.7,51.6,142.6,52.9,145.5c0.4,0.8,4.2,3,5.9,3.8
		c1.5,1.5,3.9,4.4,4.2,4.8l2.7,3.4c1,1.2,2.6,1.8,4.1,1.3c1.2-0.3,2.6-1.1,4-2.7c2.8-3.3-18.9-116.4-27.2-159.7v0l-1-5.2
		c0-0.2-0.1-0.4-0.1-0.7c0,0,0-0.1,0-0.1c-0.1-0.4-0.2-0.9-0.2-1.3c0-0.3-0.1-0.6-0.1-1c-0.1-3,0.5-5.9,1.9-8.6c0,0,0,0,0,0
		c0.2-0.3,0.3-0.7,0.5-1c0.8-1.3,1.6-2.9,2.3-4.8c0,0,0,0,0-0.1c0.5-1.3,1.1-2.7,1.6-4.1c2.1-5.7,4-12.6,5.7-19.3c0,0,0,0,0-0.1
		c2-8.1,3.6-15.9,4.4-20.9c0-0.1,0-0.2,0-0.2c0.2-1.1,0.3-2,0.4-2.8c0.2-1.4,0.5-2.8,1.1-4.1c4.5-10.9,3.2-28.3,0.9-44
		c-1.7-12.1-4.1-23.2-4.9-29.8c-0.2-1.5-0.8-2.8-1.5-4.1c-0.3-0.5-0.5-1.7-0.7-3.5c-0.8-7.5-0.8-25.1-0.5-45.2c0-0.2,0-0.4,0-0.6
		c0.1-5.2,0.2-10.6,0.3-15.9c0,0,0,0,0,0c0,0,0,0,0-0.1c0,0,0,0,0,0c0,0,0,0,0,0c0,0,0,0,0,0c0,0,0,0,0,0c0,0,0,0,0,0c0,0,0,0,0,0
		c0,0,0,0,0,0v0c0,0,0,0,0,0c0,0,0,0,0,0v0c0,0,0,0,0,0c0,0,0,0,0,0c0,0,0,0,0,0v0c0,0,0,0,0,0c0,0,0,0,0,0c0,0,0,0,0,0c0,0,0,0,0,0
		c0,0,0,0,0,0c0,0,0,0,0,0c0-0.2,0-0.4,0-0.6c0.4-17.6,0.9-35.3,1.2-48.5c0,0,0,0,0,0c0.1-1.8,0.1-3.6,0.2-5.2v-0.1
		c0.2-5.6,0.3-10,0.3-12.7c0,0-0.3-2.7-0.7-6.9c0-0.1,0-0.1,0-0.2c-0.3-3.1-0.8-7-1.2-11.1v0c-1.4-13.5-3.2-30-3.5-32.5
		c0,0.2,0,0.5,0.1,0.9c0,0.1,0,0.2,0,0.3c-0.1-1.1-0.7-6.2-2.4-20.1c-1.7-14.1-34.8-26.3-36.2-30.7c-0.6-1.9,1.7-7.9,7.9-5.6
		c29.1,10.9,48.7-23,48.6-34.9c0-2.9,2.7-5.2,5.5-6.1c8.2-2.6,12-9.8,13-12c0.2-0.3,0.5-0.4,0.8-0.2c0,0,1.2-0.3,2.9-0.8
		c3.5-1.1,10.6-3.2,15.1-4.4c0,0,0,0,0.1,0c1.8-0.6,3.7-1.3,5.6-1.9C665.8,149.2,665.9,146.7,665.8,144.7z M609,754.4l-0.4-0.3
		C608.7,754.2,608.8,754.3,609,754.4z"/>
	<path class="st10" d="M447.7,587.6c-6.2,3-11.1,6.8-13.2,11.1c-4.8,9.9-8.1,16.8-10.3,21.7c-0.8,0.3-1.8,0.4-2.8,0.3
		c-0.9,0-2-0.2-2.7-0.8c-6-5.8-31.3-30.8-37.8-40c-0.9-1.2-0.2-2.9,1.2-3.3c7.5-2.1,28.1-7.3,30.8-1.5c0.1,0.3,0.4,0.6,0.7,0.7
		C419.1,578.2,446.1,582.2,447.7,587.6z"/>
	<a xlink:href="https://sotom591.github.io/#home" >
		<path class="st11" d="M669.5,43.9c-0.3-0.4,13.7-24.7,43.2-35.3C726,3.8,752.3-9,786.2,11.7c0.2,0.1,0.4,0.3,0.6,0.4
			c2.5,1.5,21.2,13.1,21.3,18.3c0.2,5.4-5.6,22.7-24.6,28.8c-0.9,0.3-23,10.6-62.2,6.1C721.2,65.2,683.2,60.8,669.5,43.9z"/>
	</a>
	<a xlink:href="https://sotom591.github.io/#about" >
		<path class="st12" d="M704.2,162.8c-0.3-0.1-0.5-0.4-0.6-0.7c-0.5-3.5-3-23.2,4.9-44c0,0,9.2-35.9,54.2-40.9
			c0,0,31.7-4.7,41.8,3.5c0.2,0.2,0.4,1,0.3,0.8c-1.9-5.8-9.2,39.9-15.2,42.6c-37.7,17.1-15.3,25.9-46.7,35.6c0,0,0,0,0,0
			C742.8,159.8,721,167.2,704.2,162.8z"/>
	</a>
	<a xlink:href="https://sotom591.github.io/#portfolio" >
		<path class="st12" d="M785.8,221.9c-2.9-0.1-4.8-2.6-4.5-5.6c1-10.4-10.9-22.5-9.5-33.9c4.1-33.3,6.1-47.1,30-64.8
			c0.1-0.1-8.9,9.5-8.8,9.4c1.3-1.9,14-19.6,42.4-25.5c2.5-0.5,5.1,0.6,6.4,2.8c4.1,6.9,12.4,22.5,12.1,36.8c0,0.1,0,0.1,0,0.2
			c-0.2,2.2-3.2,39.6-17.9,51.7C836,193,805.7,222.6,785.8,221.9z"/>
	</a>
	<g>
		<path class="st10" d="M378.7,546.4c-6.6,7.2-21.8-19.7-21.8-19.7c-0.3-0.1-0.5-0.3-0.6-0.7c5-9.4,10.9-18.7,18-26.5
			c4.9,5.1,9.8,31.2,9.8,31.2C384.8,537.6,378.7,546.4,378.7,546.4z"/>
		<path class="st10" d="M385,493c0,0,2,14.3,17.3,29.7c2.5,2.6,6.2,3.8,9.8,3.4c8.7-1,24.7-3.4,28.3-7.5c5.5-6.3,19.2-4.1,9.9-34.6
			c-1.8-6-7.9-8.4-14.3-7.9C411,477.9,379,487.9,385,493z"/>
		<path class="st10" d="M450.1,471.8c-1,1.3,4.3,1.4,11.6,1.4c2.3,0,1.3,4.2,2,4.7c6.8,5.4,17.2,9.9,21.7,8
			c5.9-2.5,37.3-8.2,37.5-33.1l-9.7-39.6c-0.2-1-1.3-1.6-2.1-1.5c-6.3,9.1-11.3,22.5-16.3,34.4c-1.2,2.9-3.2,5.6-5.9,8.1
			c-3.5,4.1-8.7,7.5-17.4,10.5c0,0-0.1,0-0.1,0L450.1,471.8z"/>
		<path class="st10" d="M407.8,555.5c-1.6-1.2-1.4-3.6,0.4-4.6c11.8-6.8,51.7-29.6,53.7-27.7c2.3,2.3,7.5,27.8,0,34.1
			s-20.2,8-26.5,10.8C430.2,570.5,414.5,560.8,407.8,555.5z"/>
		<path class="st10" d="M486.7,498.6c0,0,20.7-17,27.6-13.6c6.9,3.4,25.3,4.5,28.2,17s1.3,28.5-3.5,29.5
			C515.1,536.9,483.1,501.5,486.7,498.6z"/>
		<path class="st10" d="M502.3,548.9c0.9-0.4,1.6-1.1,2.5-1.4c5.6-2,26.4-9,28.6-4.9c2.5,4.8,12,19.1,8.8,25.1s-24.8,15.9-27.8,16.4
			s-23.4-0.7-27-5.7C486.6,577,488.3,555.8,502.3,548.9z"/>
		<path class="st10" d="M602.5,575.3c-2.6-5.5-25.8-11.7-31.4-11.5c-6.5,0.2-4,27-4,27c0.2,2.6,16.2,11.5,26.2,13.6
			c1.9,0.4,3.5-0.7,4.1-2.2v0l-1-5.2c0-0.2-0.1-0.4-0.1-0.7c-0.4-3.1,0.2-7.1,1.6-11c0,0,0,0,0,0c0.7-2,1.7-4,2.9-5.8c0,0,0,0,0-0.1
			L602.5,575.3z"/>
		<path class="st10" d="M608.3,556C608.3,556,608.2,556,608.3,556c-0.9,2.4-1.8,4.2-2.9,5.2c-6.2,5.9-52.9-39.4-49.2-49.2
			c3.7-9.8,18.8-32.1,21.9-26.7c1.1,1.9,22.8,28.6,32.2,35.9c2.3,1.8,3.5,4.5,3.2,7.4c-0.2,1.8-0.4,3.9-0.8,6.2c0,0.1,0,0.1,0,0.2
			L608.3,556z"/>
		<path class="st10" d="M615.1,483.9c-3.5-0.1-51.9-37.2-52.1-39.9c-0.2-2.2,0.9-12.7,5.5-18.2c1.7-2,4.7-2.5,6.9-1
			c6.2,4,20.2,13,21.6,13.5c4.8,1.7,8.3,4.6,11,8.2c0.2,1.8,0.4,3,0.7,3.5c0.7,1.3,1.4,2.6,1.5,4.1
			C611,460.7,613.4,471.8,615.1,483.9z"/>
		<path class="st10" d="M583.3,398.5c0,0,20-42,23-38.6c2.9,3.4,1,60.2,0,63.6C605.3,426.9,584.2,411,583.3,398.5z"/>
		<path class="st10" d="M564.4,407c-5.4,0-2-58.3,10.2-52.3c8.2,4,4.6,26.1,4.6,26.1s0.1,13.6-4.6,17.6
			C569.9,402.5,577.1,407,564.4,407z"/>
		<path class="st10" d="M608.7,330.2L608.7,330.2c-0.1,1.7-0.2,3.4-0.3,5.3c0,0,0,0,0,0c0,0,0,0,0,0.1c-1,1.5-2.1,3-3.2,3.8
			c-2.2,1.5-25.4-7.6-24.1-13.7c0,0,4.9-29.4,19.4-34.4c4.4-1.5,6.5,2.2,7.6,8v0c0.6,3.3,0.8,7.2,0.8,11.2c0,0.1,0,0.1,0,0.2
			C609,318.2,608.5,326.1,608.7,330.2z"/>
		<path class="st10" d="M582.5,253.4c-1.7,0.9-17.2,25.9-12.7,38.4c4.6,12.5,0.8,3.4,4.4,10.2s13.2-14.3,13.2-14.3
			c2.4-0.6,6.2-21.4,2.5-27.8c-4.9-8.3-4.6-5.7-4.6-5.7L582.5,253.4z"/>
		<path class="st13" d="M556,380.6c0-0.1,0.1-0.5,0.1-1C556.1,379.7,556.1,380,556,380.6z"/>
		<path class="st10" d="M564.6,333.5c-0.1,0.6-7,18.2-6.4,31.4v0c0,0,0,0,0,0.1c-0.1,1.4-1.6,11.4-2.1,14.7c-0.2,0-2.8,9.1-3.5,12.1
			c-0.7,3-7.5,7-12.4,4.5c4.5-3.1,7.6-8.2,9.7-17.9c4-18.2,6.3-54,5.8-60.2c-0.3-3-0.5-4.9-0.6-5.9v0c-0.4-1.2-5.1-23-9-45
			c-1.8-13.9-3.3-26.6-4.2-33.8c-0.1-0.6,0.8-0.8,2.8,6.1l3.8,12.9l0,0.1l0,0.1l0,0.1c0.8,2.3,7.4,24.4,7.4,24.7
			C560.5,318.5,565.8,326.7,564.6,333.5z"/>
		<path class="st13" d="M557.7,367.7l0.6-2.8L557.7,367.7z"/>
		<path class="st8" d="M559.3,359.6c-1.7,8.1,0.7-3.4-1.7,8.1c-2.4,11.5,2.4-11.5,0,0"/>
		<path class="st10" d="M531.8,423.9c0.5,0.4,15.5-3.5,16.7,2.8c1.2,6.2,8.9,16.6,3.6,22.2s-8.2,12.4-8.2,14.1
			c0,1.7-7.5-0.6-12.1-9.1S527.8,420.6,531.8,423.9z"/>
		<path class="st10" d="M542.9,484.5c0,0,3.5,9.2,9.2,8c5.6-1.1,13.8-3.1,14.6-8.7c0.8-5.5-5.3-25-9.7-20.4s-11.9,4-13.1,10.3
			C542.8,480.1,542.9,484.5,542.9,484.5z"/>
		<path class="st10" d="M374.3,572.5c-0.6,5.4-11.5,8.2-11.5,8.2h-4.5c1-6.1,2.1-13.2,3.1-21.5c0,0,0,0,0,0c0,0.1-0.1,0.2-0.3,0.4
			c0.6-1,1.2-2,1.8-2.8c5.6-7.5,6.3,1.9,11.5,0.2C379.5,555.1,374.9,567,374.3,572.5z"/>
		<path class="st10" d="M478.6,522.1c-1.7-1-3.8,0.2-3.9,2.1c-0.3,6-3.4,13.1,2,17.2c6.9,5.2,11.3,7.5,14.4,6.3
			c2.5-0.9,8.8-2.2,10.9-10.5c0.1-0.4,0,0.2,0,0c0.1-2.7,6.6-7.6-4.6-8.5c0,0-1.1-0.6-1.8-1L478.6,522.1z"/>
		<path class="st13" d="M502.1,540.6"/>
		<path class="st10" d="M559.3,230.6c-0.3,0.5-6.3,5.7-1.1,13.6c5.2,7.9,8.5,9.2,8.5,9.2s11.1-6.8,9.9-11.4s7.1-8.6,0.1-11.4
			C569.8,227.8,561.8,226.4,559.3,230.6z"/>
	</g>
	<path class="st14" d="M656.4,141.9c-2,1.1-4.6,2-6.7,2.5c-0.8,0.2-1.5,0.3-2,0.4c-0.3,0-0.6,0-0.8,0c-0.3,0.2-0.6,0.5-0.7,0.8
		l-4.9,12.3c1.1,0,18.8-3.7,18-5.3c0,0,0,0,0.1,0c3-1,5-1.7,5.6-1.9c1.2-0.4,1.2-3.3,0.9-5.9c-0.2-1.8-0.6-3.4-0.9-4.1
		c-0.3-0.8-0.9-1.2-1.6-1.5c0,0,0,0,0,0c-0.8-0.4-1.7-0.4-2.5-0.4L656.4,141.9z"/>
	<path class="st8" d="M803.3,40.9c-1.1,4.7,1.1-4.7,1.1-4.7"/>
	<path class="st15" d="M804.6,25.6c-0.5-0.7-0.2-2,0.7-1.9c7.9,0.7,41.6-1.8,46-6.8c3-3.4,24.3-20.1,23.3-16.3c-1,3.8,11,9,11,9
		s-17.6,14.4-16.9,20c0.7,5.5,3.1,15.7-2.1,27.8c-5.5,12.8-22.3,57.5-22.7,53.2c-0.5-4.9-3.4-5.9-5.7-6.9s19.5-48.5,13.5-54.8
		c-4.2-4.3-47.4,33.8-48.9,34.1l-2.4-2.6l-5.8-2.4c-1-0.4-1.2-1.8-0.3-2.5l52.3-42.4c-1.5-3.2-38.5-2.8-38.5-2.8L804.6,25.6z"/>
	<path class="st16" d="M787,124.2"/>
	<g>
		<path class="st17" d="M739.3,135.6l-2.5,1.9l-5-2.7l-7.1,5.2l1.2,5.5l-2.4,1.8l-3.5-18.4l2.4-1.8L739.3,135.6z M730,133.9
			l-7.6-4.1l1.8,8.4L730,133.9z"/>
		<path class="st17" d="M736.7,124.2c0.3-1.7,1.1-3,2.5-4c1.6-1.2,3.2-1.7,4.7-1.4c1.5,0.3,2.9,1.2,4,2.7c1.2,1.6,1.6,3.2,1.3,4.9
			c-0.3,1.7-1.2,3.1-2.7,4.1c-1.3,1-2.7,1.5-4.1,1.5l0.6,0.8l-2.2,1.6l-10-13.6l2.2-1.6L736.7,124.2z M741.3,130.5
			c1.5,0.1,2.9-0.3,4.1-1.2c0.9-0.7,1.5-1.6,1.5-2.6c0.1-1.1-0.3-2.2-1.3-3.5c-0.9-1.2-1.8-1.9-2.8-2.2s-2,0-2.9,0.7
			c-1.2,0.9-1.9,2.3-2.1,4.1L741.3,130.5z"/>
		<path class="st17" d="M751.7,111c1.8-1.3,3.5-1.9,5.2-1.8c1.7,0.1,3.2,1,4.4,2.6c1.2,1.6,1.6,3.3,1.2,4.9s-1.5,3.2-3.2,4.4
			c-1.8,1.3-3.5,1.9-5.2,1.7c-1.7-0.1-3.2-1-4.4-2.6c-1.2-1.6-1.6-3.3-1.2-5C748.8,113.8,749.9,112.3,751.7,111z M758.2,119.9
			c1-0.8,1.7-1.7,1.8-2.8c0.2-1.1-0.2-2.3-1.1-3.5s-1.9-2-3.1-2.1c-1.1-0.2-2.2,0.2-3.2,0.9s-1.7,1.7-1.8,2.8
			c-0.2,1.1,0.2,2.3,1.1,3.6c0.9,1.2,1.9,1.9,3,2.1S757.2,120.7,758.2,119.9z"/>
		<path class="st17" d="M774.2,108c-0.4,1.8-1.2,3.2-2.6,4.2c-2.8,2-5.1,1.8-6.8-0.6l-4.7-6.4l2.2-1.6l4.7,6.4
			c0.6,0.8,1.2,1.2,1.8,1.3c0.6,0.1,1.3-0.2,2.2-0.8c1.2-0.9,2-2.2,2.2-4l-5.2-7.1l2.2-1.6l7.2,9.8l-2.2,1.6L774.2,108z"/>
		<path class="st17" d="M785.3,101.8c-0.4,0.4-0.9,0.8-1.5,1.3c-0.9,0.7-1.7,1-2.2,1.1c-0.6,0.1-1.1-0.1-1.5-0.4
			c-0.4-0.3-0.8-0.8-1.4-1.5l-4.1-5.6l-1.5,1.1l-1-1.4l1.5-1.1l-1.8-2.4l2.2-1.6l1.8,2.4l2-1.5l1,1.4l-2,1.5l4.2,5.7
			c0.5,0.7,0.9,1,1.3,1.1c0.3,0,0.7-0.1,1.1-0.4c0.4-0.3,0.7-0.6,1-0.9L785.3,101.8z"/>
	</g>
	<g>
		<path class="st17" d="M726.7,40.3h-2.2v-7.9h-8.8v7.9h-2.2V23.4h2.2v6.9h8.8v-6.9h2.2V40.3z"/>
		<path class="st17" d="M735.2,27.8c1.7,0,3.1,0.6,4.2,1.7s1.6,2.7,1.6,4.7c0,2-0.5,3.6-1.6,4.7c-1,1.1-2.4,1.7-4.2,1.7
			c-1.7,0-3.1-0.6-4.2-1.7s-1.6-2.7-1.6-4.7c0-2,0.5-3.6,1.6-4.7S733.5,27.8,735.2,27.8z M735.2,38.9c1,0,1.9-0.4,2.5-1.2
			c0.7-0.8,1-2,1-3.5c0-1.6-0.3-2.7-1-3.5c-0.6-0.8-1.5-1.2-2.5-1.2s-1.9,0.4-2.5,1.2s-1,2-1,3.5c0,1.5,0.3,2.7,1,3.5
			S734.2,38.9,735.2,38.9z"/>
		<path class="st17" d="M759.9,40.3h-2.2v-7.9c0-1-0.2-1.7-0.4-2.2s-0.8-0.6-1.5-0.6c-1,0-2.1,0.6-3.1,2v8.8h-2.2v-7.9
			c0-1-0.2-1.7-0.4-2.2s-0.8-0.6-1.5-0.6c-1,0-2.1,0.6-3.1,2v8.8h-2.2V28.1h2.2v1.5c1-1.2,2.2-1.8,3.4-1.8c1.8,0,2.9,0.7,3.4,2.2
			c0.8-1,1.5-1.6,2.1-1.8c0.6-0.3,1.1-0.4,1.7-0.4c2.5,0,3.8,1.5,3.8,4.5L759.9,40.3L759.9,40.3z"/>
		<path class="st17" d="M768.2,40.6c-1.8,0-3.2-0.6-4.3-1.7s-1.6-2.7-1.6-4.7c0-2,0.5-3.6,1.6-4.7s2.4-1.7,4.1-1.7
			c1.7,0,3.1,0.6,4.2,1.7s1.6,2.7,1.6,4.7v0.5h-9.2c0.1,1.4,0.5,2.5,1.2,3.1s1.5,1,2.5,1c0.8,0,1.5-0.2,2.1-0.6s0.9-0.9,1-1.7h2.2
			c-0.2,1.3-0.7,2.2-1.7,2.9C770.8,40.2,769.6,40.6,768.2,40.6z M771.4,33c-0.2-1.2-0.6-2-1.2-2.6c-0.6-0.6-1.4-0.9-2.3-0.9
			c-0.9,0-1.6,0.3-2.2,0.9s-1,1.5-1.2,2.6L771.4,33L771.4,33z"/>
	</g>
	<g>
		<path class="st17" d="M787.1,194.6l2.8-5.6c0.6-1.2,1.2-2.2,1.9-2.9c0.7-0.7,1.5-1.1,2.5-1.2c1-0.1,2,0.1,2.9,0.6
			c1.5,0.8,2.4,1.8,2.8,3.2c0.3,1.4,0,3-0.9,4.8l-1.9,3.8l6,3l-1,2L787.1,194.6z M795.4,196.3l1.9-3.8c0.6-1.3,0.9-2.3,0.7-3.1
			s-0.8-1.4-1.7-1.9c-0.6-0.3-1.2-0.4-1.8-0.4c-0.6,0.1-1.1,0.3-1.5,0.7c-0.3,0.4-0.8,1-1.2,1.9l-1.9,3.8L795.4,196.3z"/>
		<path class="st17" d="M800.2,178.4c0.8-1.6,1.9-2.6,3.4-3c1.5-0.4,3.1-0.2,4.9,0.7c1.8,0.9,3,2.1,3.5,3.5s0.4,2.9-0.4,4.5
			c-0.8,1.6-1.9,2.5-3.4,3c-1.5,0.4-3.1,0.2-4.9-0.7c-1.8-0.9-3-2.1-3.5-3.5C799.3,181.4,799.4,179.9,800.2,178.4z M810.1,183.3
			c0.5-0.9,0.5-1.9,0.1-2.8s-1.3-1.7-2.7-2.4c-1.4-0.7-2.6-0.9-3.6-0.7c-1,0.2-1.7,0.8-2.2,1.7s-0.5,1.9-0.1,2.8s1.3,1.7,2.7,2.4
			c1.4,0.7,2.6,0.9,3.6,0.7C808.9,184.8,809.6,184.2,810.1,183.3z"/>
		<path class="st17" d="M808.7,166.4c-0.2,0.2-0.5,0.6-0.7,1.1c-0.5,1-0.4,2.1,0.3,3.3l7.7,3.9l-1,1.9l-10.9-5.5l1-1.9l1.5,0.8
			c-0.8-1.4-0.9-2.6-0.3-3.7c0.1-0.3,0.3-0.6,0.5-0.8L808.7,166.4z"/>
		<path class="st17" d="M820.7,165.4c-0.1,0.5-0.3,0.9-0.6,1.4c-0.4,0.8-0.8,1.3-1.3,1.5s-1,0.3-1.4,0.1c-0.5-0.1-1.1-0.4-1.9-0.8
			l-6.2-3.1l-0.7,1.4l-1.5-0.8l0.7-1.4l-2.7-1.4l1-1.9l2.7,1.4l0.9-1.8l1.5,0.8l-0.9,1.8l6.3,3.1c0.8,0.4,1.3,0.5,1.6,0.4
			c0.3-0.1,0.5-0.3,0.7-0.6c0.2-0.3,0.3-0.7,0.4-1L820.7,165.4z"/>
		<path class="st17" d="M813.2,156.8l9.4,4.7l-1,1.9l-9.4-4.7l-0.8,1.6l-1.5-0.8l0.8-1.6l-1-0.5c-2.3-1.1-3-2.8-1.9-4.8
			c0.3-0.6,0.6-1.1,0.8-1.4l1.7,0.8c-0.3,0.4-0.5,0.7-0.7,1.1c-0.2,0.5-0.3,0.9-0.1,1.2s0.5,0.7,1.2,1l1,0.5l1-2.1l1.5,0.8
			L813.2,156.8z"/>
		<path class="st17" d="M815.4,147.9c0.8-1.6,1.9-2.6,3.4-3c1.5-0.4,3.1-0.2,4.9,0.7c1.8,0.9,3,2.1,3.5,3.5c0.5,1.4,0.4,2.9-0.4,4.5
			c-0.8,1.6-1.9,2.5-3.4,3c-1.5,0.4-3.1,0.2-4.9-0.7c-1.8-0.9-3-2.1-3.5-3.5S814.6,149.4,815.4,147.9z M825.3,152.8
			c0.5-0.9,0.5-1.9,0.1-2.8s-1.3-1.7-2.7-2.4c-1.4-0.7-2.6-0.9-3.6-0.7c-1,0.2-1.7,0.8-2.2,1.7s-0.5,1.9-0.1,2.8s1.3,1.7,2.7,2.4
			c1.4,0.7,2.6,0.9,3.6,0.7C824.1,154.3,824.8,153.8,825.3,152.8z"/>
		<path class="st17" d="M831.2,144.2l-1,1.9l-15.1-7.5l1-1.9L831.2,144.2z"/>
		<path class="st17" d="M820.6,132.9l-1,1.9l-2.1-1.1l1-1.9L820.6,132.9z M833.6,139.4l-1,1.9l-10.9-5.5l1-1.9L833.6,139.4z"/>
		<path class="st17" d="M826.1,126.5c0.8-1.6,1.9-2.6,3.4-3c1.5-0.4,3.1-0.2,4.9,0.7c1.8,0.9,3,2.1,3.5,3.5c0.5,1.4,0.4,2.9-0.4,4.5
			c-0.8,1.6-1.9,2.5-3.4,3c-1.5,0.4-3.1,0.2-4.9-0.7s-3-2.1-3.5-3.5C825.2,129.6,825.3,128.1,826.1,126.5z M836,131.5
			c0.5-0.9,0.5-1.9,0.1-2.8c-0.4-0.9-1.3-1.7-2.7-2.4c-1.4-0.7-2.6-0.9-3.6-0.7c-1,0.2-1.7,0.8-2.2,1.7s-0.5,1.8-0.1,2.8
			c0.4,0.9,1.3,1.7,2.7,2.4c1.4,0.7,2.6,0.9,3.6,0.7C834.8,133,835.5,132.4,836,131.5z"/>
	</g>
</g>
</svg>
