<?xml version="1.0" encoding="utf-8"?>
<!-- Generator: Adobe Illustrator 23.0.1, SVG Export Plug-In . SVG Version: 6.00 Build 0)  -->
<svg version="1.1" id="Layer_1" xmlns="http://www.w3.org/2000/svg" xmlns:xlink="http://www.w3.org/1999/xlink" x="0px" y="0px"
	 viewBox="0 0 1366 768" style="enable-background:new 0 0 1366 768;" xml:space="preserve">
<style type="text/css">
	.st0{display:none;fill:#26AA00;}
	.st1{display:none;fill:none;stroke:#26AA00;stroke-miterlimit:10;}
	.st2{display:none;fill:#261800;}
	.st3{display:none;}
	.st4{display:inline;}
	.st5{fill:#3B8D74;}
	.st6{fill:none;}
	.st7{fill:#F7C548;}
	.st8{fill:#26AA00;}
	.st9{fill:#261800;}
	.st10{fill:#A98743;}
	.st11{fill:#84EA63;}
	.st12{fill:#F47800;}
	.st13{fill:#D400C5;}
	.st14{fill:#A98743;stroke:#A98743;stroke-miterlimit:10;}
	.st15{fill:#4A1700;stroke:#261800;stroke-miterlimit:10;}
	.st16{fill:#255957;}
</style>
<image style="display:none;overflow:visible;enable-background:new    ;" width="1673" height="2155" xlink:href="BF1CB19D6A6C4E51.jpeg"  transform="matrix(0.3312 0 0 0.3219 876.0668 340.9011)">
</image>
<path class="st0" d="M944.4,159l23.9-23c1-0.9,2.5-0.2,2.5,1.1c-0.4,6.7-1.4,20.3-3,23.4c-0.1,0.2,0.6,4.9,0.5,5l-1-4.5
	c-1.2,1-0.2,2.9,1.2,2.5l0,0c0.6-0.1,1.2,0.1,1.5,0.7l0.3,0.6c0.7,1.1,2.4,0.9,2.7-0.4c0.7-2.9,1.6-6.7,2.5-8.9
	c1.5-3.8,3-21.4,5.2-22.1c2-0.7,4-4.8,13.2-6.1c0.8-0.1,2.8,0.6,2.5-0.2c-6.5-25.7-3.3-5.5,1.6,1.4v19L944.4,159z"/>
<path class="st0" d="M964.1,161.4c0,0,28.2,9.4,31.1,8.4c4.3-1.4,21-5.2,16.5-4.2L964.1,161.4z"/>
<path class="st1" d="M982,87.5c-1.8,6.2-22,19.1-22,19.1l7.6-26.6c5-0.3,18.1,11.3,14,6.2C981.3,85.9,982.2,87.1,982,87.5z"/>
<path class="st2" d="M823.8,107.4c0,0,32.6-2.9,35.7-5.2L823.8,107.4z"/>
<g class="st3">
	<g class="st4">
		<path class="st5" d="M294.2,405.9c0.7,1.6,1.4,3.2,2.1,4.8c-0.9,0.7-1.7,1.4-2.5,2.1c-2.1-5.2-4.2-10.4-6.3-15.6
			c1-0.8,2-1.6,2.9-2.4c6.3,1.7,12.7,3.3,19,4.9c-0.9,0.7-1.7,1.4-2.5,2.2c-2-0.5-4-1-6-1.5C298.6,402.1,296.4,404,294.2,405.9z
			 M299.1,399.7c-1.8-0.5-3.7-0.9-5.5-1.4c-1.2-0.3-2.3-0.7-3.3-1.1c0,0,0,0-0.1,0c0.5,0.8,0.9,1.7,1.3,2.6c0.6,1.5,1.2,3,1.8,4.5
			C295.3,402.8,297.2,401.2,299.1,399.7z"/>
		<path class="st5" d="M298.7,386.7c0.8-0.7,1.6-1.4,2.4-2c4.4,3.6,8.8,7.2,13.3,10.7c-0.8,0.7-1.6,1.4-2.4,2
			C307.5,393.9,303.1,390.3,298.7,386.7z"/>
		<path class="st5" d="M310.2,383.9c2.1,0.7,4.2,1.5,6.3,2.2c1.4,0.5,2.7,1,3.9,1.5c0,0,0,0,0.1-0.1c-0.6-1-1.2-2.1-1.7-3.3
			c-0.8-1.8-1.7-3.7-2.5-5.5c0.6-0.6,1.3-1.1,2-1.7c2.1,0.6,4.3,1.2,6.5,1.8c1.5,0.5,2.9,0.9,4.1,1.3c0,0,0,0,0.1-0.1
			c-0.7-0.9-1.3-2-2-3.2c-0.9-1.7-1.8-3.5-2.7-5.2c0.8-0.7,1.5-1.4,2.2-2c1.6,3.6,3.3,7.2,5,10.8c-0.7,0.6-1.4,1.3-2.1,1.9
			c-2.1-0.5-4.2-1.1-6.3-1.7c-1.5-0.4-2.7-0.8-4.1-1.4c0,0,0,0,0,0c0.8,1.2,1.3,2.2,1.8,3.4c0.8,1.7,1.5,3.5,2.3,5.2
			c-0.7,0.6-1.4,1.2-2.1,1.9c-4.3-1.3-8.7-2.5-13-3.9C308.6,385.3,309.4,384.6,310.2,383.9z"/>
		<path class="st5" d="M344.5,368.1c-0.5-0.2-0.9-0.5-1.3-0.7c0,0,0,0-0.1,0.1c0,1.2-0.6,2.9-2.4,4.6c-2.5,2.3-5.1,2.5-6.4,1.5
			c-2.2-1.7-0.7-5.1,4-9.5c-0.1,0-0.1-0.1-0.2-0.1c-0.7-0.6-2.4-1.4-4.9,1c-1.1,1.1-2.1,2.4-2.5,3.5c-0.5-0.1-1.1-0.3-1.6-0.4
			c0.5-1.3,1.8-3,3.3-4.4c3.8-3.5,6.5-2.9,8.3-1.5c1.1,0.9,2.2,1.7,3.4,2.6c0.8,0.6,1.6,1.1,2.3,1.5
			C345.8,366.9,345.1,367.5,344.5,368.1z M339.5,364.9c-2.4,2.2-4.9,5.1-3.2,6.5c1.1,0.8,2.5,0.3,3.7-0.7c1.6-1.5,1.9-3.1,1.5-4
			c-0.1-0.2-0.2-0.4-0.4-0.5C340.5,365.7,340,365.3,339.5,364.9z"/>
		<path class="st5" d="M341.6,355.3c2.6,0.5,5.3,1,7.9,1.5c0.9,0.2,1.9,0.4,2.6,0.6c0,0,0,0,0.1-0.1c-0.3-0.6-0.7-1.4-1.1-2.2
			c-1-2.1-1.9-4.2-2.9-6.4c0.8-0.8,1.5-1.5,2.3-2.3c1,2.7,2.1,5.4,3.1,8.1c1.5,3.9,2.1,6.1,1.6,8.4c-0.4,1.6-1.1,2.9-1.6,3.5
			c-0.6-0.2-1.3-0.3-1.9-0.5c0.4-0.6,0.9-1.5,1.1-2.5c0.2-0.9,0.3-2.1,0-3.2c-0.1-0.2-0.1-0.4-0.2-0.5c-0.1-0.1-0.3-0.1-0.6-0.2
			c-4.2-0.6-8.5-1.3-12.7-2C340,356.8,340.8,356,341.6,355.3z"/>
		<path class="st5" d="M359.4,350.3c1-0.4,2.4-1.4,3.5-2.5c1.5-1.6,1.7-2.9,0.9-3.4c-0.8-0.6-1.8-0.2-3.8,1.1
			c-2.7,1.8-4.6,2.2-5.6,1.4c-1.4-1.1-1.1-3.5,1.4-6.2c1.2-1.2,2.4-2.1,3.4-2.6c0.2,0.5,0.4,1,0.6,1.4c-0.7,0.3-1.8,1-2.9,2.1
			c-1.2,1.3-1.4,2.4-0.7,2.9c0.7,0.5,1.8,0.1,3.7-1.2c2.6-1.7,4.4-2.3,5.7-1.3c1.6,1.1,1.1,3.7-1.6,6.6c-1.3,1.4-2.7,2.4-3.9,3
			C359.9,351.2,359.6,350.8,359.4,350.3z"/>
		<path class="st5" d="M381.9,327.9c-0.4-0.2-0.9-0.4-1.3-0.6c0,0,0,0-0.1,0.1c0.1,1.2-0.5,3.1-2.1,5c-2.2,2.7-4.7,3.1-6,2.2
			c-2.2-1.5-0.9-5.1,3.4-10.2c-0.1,0-0.1-0.1-0.2-0.1c-0.7-0.5-2.3-1.1-4.6,1.5c-1,1.2-1.9,2.6-2.3,3.8c-0.5-0.1-1-0.2-1.5-0.2
			c0.5-1.4,1.5-3.2,2.9-4.8c3.4-4,6-3.7,7.8-2.5c1.1,0.8,2.2,1.5,3.3,2.3c0.8,0.5,1.5,1,2.3,1.2
			C383.1,326.5,382.5,327.2,381.9,327.9z M377.1,325.2c-2.2,2.6-4.4,5.7-2.7,7c1.1,0.8,2.4,0.1,3.5-1.1c1.5-1.7,1.6-3.4,1.2-4.3
			c-0.1-0.2-0.3-0.4-0.4-0.5C378.1,325.9,377.6,325.5,377.1,325.2z"/>
		<path class="st5" d="M377.7,311.4c0.5,0.4,0.5,1.3-0.3,2.2c-0.7,0.9-1.6,1.2-2.2,0.8c-0.5-0.4-0.5-1.3,0.2-2.2
			C376.3,311.4,377.2,311.1,377.7,311.4z M386.8,321.9c-3-2-5.9-4-8.8-6c0.7-0.8,1.3-1.6,2-2.5c2.9,2,5.8,4,8.8,6
			C388.1,320.2,387.4,321.1,386.8,321.9z"/>
		<path class="st5" d="M385.6,310.9c-0.9-0.6-1.7-1-2.4-1.5c0.6-0.7,1.1-1.5,1.7-2.2c0.5,0.3,1,0.5,1.5,0.8c0,0,0,0,0-0.1
			c-0.2-1.3,0-3.1,1.8-5.5c1.4-1.9,3.2-3,4.7-2.9c0,0,0,0,0-0.1c-0.2-0.8-0.1-1.6,0-2.4c0.2-1.1,0.7-2.2,1.7-3.6
			c1.4-2,4.1-4.5,7.1-2.7c1.7,1,3.4,2.1,5.1,3.1c-0.6,0.9-1.2,1.8-1.8,2.8c-1.6-1-3.3-2-4.9-3c-1.7-1-3.4-0.6-4.9,1.6
			c-1.1,1.5-1.3,3.1-0.8,4.1c0.1,0.3,0.4,0.5,0.6,0.7c1.8,1.1,3.6,2.3,5.4,3.4c-0.6,0.9-1.2,1.8-1.8,2.6c-1.8-1.1-3.5-2.2-5.2-3.4
			c-1.4-0.9-3.1-0.5-4.6,1.4c-1.2,1.6-1.3,3.3-0.8,4.3c0.1,0.3,0.4,0.5,0.6,0.7c1.8,1.2,3.5,2.3,5.3,3.5c-0.6,0.9-1.3,1.7-1.9,2.5
			C389.8,313.7,387.7,312.3,385.6,310.9z"/>
		<path class="st5" d="M401.6,274.9c0.6-1,1.2-1.9,1.8-2.9c1.8,1,3.5,2,5.3,3c0,0,0,0,0-0.1c-0.1-0.7-0.1-1.7,0.2-2.7
			c0.2-1,0.7-2.2,1.4-3.3c1.3-2.2,4-5.4,6.9-3.9c1.7,0.9,3.4,1.8,5,2.6c-0.6,1-1.1,2.1-1.7,3.1c-1.6-0.9-3.3-1.7-4.9-2.6
			c-1.4-0.7-3.1-0.3-4.7,2.5c-1.1,2-1.3,3.9-0.8,4.9c0.1,0.3,0.3,0.5,0.6,0.6c1.7,1,3.4,1.9,5.2,2.9c-0.6,1-1.2,2-1.8,3
			C409.9,279.7,405.7,277.3,401.6,274.9z"/>
		<path class="st5" d="M416.1,253.4c0.5,0.3,0.5,1.2-0.1,2.5c-0.6,1.1-1.5,1.7-2,1.4c-0.5-0.3-0.5-1.3,0.1-2.4
			C414.7,253.7,415.6,253.1,416.1,253.4z M424.9,262.4c-2.8-1.4-5.6-2.9-8.4-4.3c0.6-1,1.1-2.1,1.7-3.2c2.8,1.4,5.6,2.8,8.4,4.2
			C426,260.3,425.5,261.4,424.9,262.4z"/>
		<path class="st5" d="M428.6,233.6c0.5,0.4,1.2,0.7,2.1,1.1c1.6,0.7,3.1,1.4,4.7,2c1.9,0.8,2.6,2.2,2.5,4.4c-0.1,2.3-1,5.1-2.1,7.6
			c-1,2.3-2.4,4.7-3.6,6c-0.3-0.5-0.5-0.9-0.8-1.4c0.9-1.1,2.2-2.9,3.2-5.3c1.6-3.6,2-6.6-0.1-7.5c-0.3-0.1-0.6-0.3-0.9-0.4
			c0,0,0,0.1,0,0.1c0.3,1.4,0,3.8-1.4,6.7c-2.2,4.8-5.5,7.1-7.8,6c-2.8-1.4-2.4-6.1-0.3-10.4c1.5-3.2,3.1-4.7,4.1-5.2
			c0,0,0-0.1,0-0.1c-0.4-0.2-0.8-0.5-1.1-0.7C427.7,235.6,428.2,234.6,428.6,233.6z M430.2,238.6c-0.2-0.1-0.5-0.2-0.8-0.1
			c-1.1,0.3-2.6,1.6-3.8,4.1c-1.5,3.2-1.5,6.1,0.5,7c1.6,0.8,3.9-0.4,5.6-4.1c1-2.1,1.3-4.4,0.6-5.6c-0.2-0.3-0.4-0.5-0.7-0.6
			C431.2,239,430.7,238.8,430.2,238.6z"/>
		<path class="st5" d="M427.4,226.3c0.5-1.2,1-2.3,1.5-3.5c1.7,0.7,3.3,1.4,5,2c0,0,0-0.1,0-0.1c-0.2-0.8-0.1-1.8,0-3
			c0.2-1.2,0.6-2.5,1.1-3.9c1.1-2.7,3.4-7,6.1-6c1.6,0.6,3.1,1.1,4.7,1.6c-0.5,1.3-0.9,2.6-1.4,3.9c-1.5-0.6-3-1.1-4.6-1.6
			c-1.3-0.5-2.8,0.4-4.2,3.9c-1,2.4-1.1,4.5-0.5,5.5c0.1,0.3,0.3,0.4,0.6,0.5c1.6,0.6,3.2,1.3,4.9,1.9c-0.5,1.2-1,2.5-1.5,3.7
			C435.2,229.6,431.3,228,427.4,226.3z"/>
	</g>
</g>
<rect x="215.5" y="309.4" class="st6" width="55.7" height="45.4"/>
<polygon class="st6" points="308.6,128.9 390.7,128.9 390.7,128.9 "/>
<path class="st7" d="M447.7,587.6c-6.2,3-11.1,6.8-13.2,11.1c-4.8,9.9-8.1,16.8-10.3,21.7c-0.8,0.3-1.8,0.4-2.8,0.3
	c-0.9,0-2-0.2-2.7-0.8c-6-5.8-31.3-30.8-37.8-40c-0.9-1.2-0.2-2.9,1.2-3.3c7.5-2.1,28.1-7.3,30.8-1.5c0.1,0.3,0.4,0.6,0.7,0.7
	C419.1,578.2,446.1,582.2,447.7,587.6z"/>
<path class="st8" d="M875,26L875,26L875,26z"/>
<path class="st9" d="M853.4,22.4L853.4,22.4z"/>
<path class="st9" d="M857.3,26.2L857.3,26.2z"/>
<g>
	<path class="st10" d="M665.5,145.9c0-1-0.1-1.9-0.2-2.4c-0.1-0.6-0.3-1.1-0.6-1.6c-0.4-0.5-0.9-1.1-1.6-1.5c0,0,0,0,0,0
		c-0.7-0.4-1.5-0.7-2.5-0.4c-0.7,0.2-1.5,0.7-2.3,1.6c-0.5,0.6-1.3,1.1-2.2,1.6c-2,1.1-4.6,2-6.7,2.5c-0.8,0.2-1.5,0.3-2,0.4
		c-0.3,0-0.6,0-0.8,0c-0.3-0.1-0.5-0.2-0.4-0.4c1.5-4.2,2.3-10.2,0-10.8c-2.3-0.6-86.6,28.5-88,29c0,0,0,0,0,0l-8-11.3c0,0,0,0,0,0
		c0-0.3,1.1-17-9.8-8.5c-10.8,8.4,2,11.9,2.3,11.9c0,0,0,0,0,0l6.9,11.3v0.1c-2.7,8.4-19.8,10.2-21.7,4.9c-3.9-1-7.4-1.4-10.5-1.4
		c-23.3,0-27.6,23.8-27.6,23.8c12.1,11.9,43.9,10.5,43.9,10.5l6.2,20.5c-0.2,7.2,2.6,25.2,5.9,43.1c4,22,8.6,43.9,9,45v0
		c0.1,1,0.3,2.8,0.6,5.9c0.6,6.2-1.7,42-5.8,60.2c-2.1,9.6-5.2,14.8-9.7,17.9c-4,2.7-9.1,3.8-15.6,4.9c-5.3,0.9-9.7,4.8-13.6,10.4
		c-6.3,9.1-11.3,22.5-16.3,34.4c-1.2,2.9-3.2,5.6-5.9,8.1c-4.3,4-10.3,7.4-17.4,10.5c0,0-0.1,0-0.1,0c-6.3,2.6-13.5,5-21.2,7.1
		c-6.4,1.8-13.2,3.4-20.2,4.9c0,0,0,0-0.1,0c-8.4,1.8-17,3.4-25.6,5c0,0,0,0-0.1,0c-0.1,0-0.2,0-0.3,0.1c-4.6,0.8-8.9,2.4-12.8,4.5
		c0,0-0.1,0-0.1,0c-2,1.1-4,2.3-5.8,3.6c0,0,0,0,0,0c-3.9,2.7-7.4,6-10.7,9.6c-7.1,7.8-13,17.1-18,26.5c-9,17-15,33.9-19.2,41
		c-5.4,9.1-13.9,13.8-19.9,16.1c-3,1.2-17.6-13-29,6.1c-4.4,7.4-7.6,11.5-9.9,13.7c-2,1.8-0.6,4.1,1.1,6.2c0.4,0.5,7.5,2.8,10.5,4
		c2.3,4,22.4-3.4,22.4-3.4c8.6-4,8.6-15.9,8.6-15.9c12.1-5.1,15-11.4,20.1-13.6c4.7-2.1,17.5-17.8,19.8-20.6l0,0
		c0.1-0.2,0.2-0.3,0.3-0.4c0,0,0,0,0,0c-1,8.3-2,15.4-3.1,21.5c-2.6,15.1-5.1,24-6.7,30.1c-2.3,8.5-16.9,26-17.8,29.5
		c-3.1,11.9,4.6,107.5,4.6,108.5c0,1.7,9.4,10,14.4,14.3c1.9,1.7,4.5,1.2,5.8-1c0.3-0.5,0.5-0.9,0.6-1.4
		c0.6-2.3,3.7-103.8,3.3-120.4c-0.1-7.3,5.5-32.1,15.7-34.8c0,0,5.6,25,1.1,37.1c-1.6,4.3,2.9,104.8,2.3,105.1
		c-0.5,1.5,12.2,13.5,15.4,16.5c0.5,0.5,1.1,0.8,1.8,0.9c1.8,0.4,5.3,0.9,5.3-0.2c0-1.5,1.4-96.2,1.6-105.3
		c0.1-0.4,14-27.3,14.1-27.7c0,0-0.6-0.1,4.6-11.5c-0.8,0.3-1.8,0.4-2.8,0.3c-0.9,0-2-0.2-2.7-0.8c-6-5.8-31.3-30.8-37.8-40
		c-0.9-1.2-0.2-2.9,1.2-3.3c7.5-2.1,28.1-7.3,30.8-1.5c0.1,0.3,0.4,0.6,0.7,0.7c5.5,2.3,32.5,6.3,34.1,11.7
		c18.4-8.9,48.5-11.2,51,0.2c0.9,3.9,12.1,153,12.1,157.6s8.1,19.5,8.1,19.5s3.5,0,6,0c1.7,0,3.2-1.1,3.6-2.7
		c5.5-18.4,15.8-109.9,17.5-129.6c4.8-55,6.5-33.3,4.8-26.8c-2.6,9.7,51.6,142.6,52.9,145.5c0.4,0.8,4.2,3,5.9,3.8
		c1.5,1.5,3.9,4.4,4.2,4.8l2.7,3.4c1,1.2,2.6,1.8,4.1,1.3c1.2-0.3,2.6-1.1,4-2.7c2.8-3.3-18.9-116.4-27.2-159.7v0l-1-5.2
		c0-0.2-0.1-0.4-0.1-0.7c0,0,0-0.1,0-0.1c-0.1-0.4-0.2-0.9-0.2-1.3c0-0.3-0.1-0.6-0.1-1c-0.1-3,0.5-5.9,1.9-8.6c0,0,0,0,0,0
		c0.2-0.3,0.3-0.7,0.5-1c0.8-1.3,1.6-2.9,2.3-4.8c0,0,0,0,0-0.1c0.5-1.3,1.1-2.7,1.6-4.1c2.1-5.7,4-12.6,5.7-19.3c0,0,0,0,0-0.1
		c2-8.1,3.6-15.9,4.4-20.9c0-0.1,0-0.2,0-0.2c0.2-1.1,0.3-2,0.4-2.8c0.2-1.4,0.5-2.8,1.1-4.1c4.5-10.9,3.2-28.3,0.9-44
		c-1.7-12.1-4.1-23.2-4.9-29.8c-0.2-1.5-0.8-2.8-1.5-4.1c-0.3-0.5-0.5-1.7-0.7-3.5c-0.8-7.5-0.8-25.1-0.5-45.2c0-0.2,0-0.4,0-0.6
		c0.1-5.2,0.2-10.6,0.3-15.9c0,0,0,0,0,0c0,0,0,0,0-0.1c0,0,0,0,0,0c0,0,0,0,0,0c0,0,0,0,0,0c0,0,0,0,0,0c0,0,0,0,0,0c0,0,0,0,0,0
		c0,0,0,0,0,0v0c0,0,0,0,0,0c0,0,0,0,0,0v0c0,0,0,0,0,0c0,0,0,0,0,0c0,0,0,0,0,0v0c0,0,0,0,0,0c0,0,0,0,0,0c0,0,0,0,0,0c0,0,0,0,0,0
		c0,0,0,0,0,0c0,0,0,0,0,0c0-0.2,0-0.4,0-0.6c0.4-17.6,0.9-35.3,1.2-48.5c0,0,0,0,0,0c0.1-1.8,0.1-3.6,0.2-5.2v-0.1
		c0.2-5.6,0.3-10,0.3-12.7c0,0-0.3-2.7-0.7-6.9c0-0.1,0-0.1,0-0.2c-0.3-3.1-0.8-7-1.2-11.1v0c-1.4-13.5-3.2-30-3.5-32.5
		c0,0.2,0,0.5,0.1,0.9c0,0.1,0,0.2,0,0.3c-0.1-1.1-0.7-6.2-2.4-20.1c-1.7-14.1-34.8-26.3-36.2-30.7c-0.6-1.9,1.7-7.9,7.9-5.6
		c29.1,10.9,48.7-23,48.6-34.9c0-2.9,2.7-5.2,5.5-6.1c8.2-2.6,12-9.8,13-12c0.2-0.3,0.5-0.4,0.8-0.2c0,0,1.2-0.3,2.9-0.8
		c3.5-1.1,10.6-3.2,15.1-4.4c0,0,0,0,0.1,0c1.8-0.6,3.7-1.3,5.6-1.9C665.5,150.4,665.6,147.9,665.5,145.9z M608.7,755.6l-0.4-0.3
		C608.4,755.4,608.5,755.5,608.7,755.6z"/>
	<a xlink:href="https://sotom591.github.io/#home" >
		<path class="st11" d="M669.2,45.1c-0.3-0.4,13.7-24.7,43.2-35.3C725.7,5,752-7.8,785.9,12.9c0.2,0.1,0.4,0.3,0.6,0.4
			c2.5,1.5,21.2,13.1,21.3,18.3c0.2,5.4-5.6,22.7-24.6,28.8c-0.9,0.3-23,10.6-62.2,6.1C721,66.4,682.9,62,669.2,45.1z"/>
	</a>
	<a xlink:href="https://sotom591.github.io/#about" >
		<path class="st11" d="M703.9,164c-0.3-0.1-0.5-0.4-0.6-0.7c-0.5-3.5-3-23.2,4.9-44c0,0,9.2-35.9,54.2-40.9c0,0,31.7-4.7,41.8,3.5
			c0.2,0.2,0.4,1,0.3,0.8c-1.9-5.8-9.2,39.9-15.2,42.6c-37.7,17.1-15.3,25.9-46.7,35.6c0,0,0,0,0,0C742.5,161,720.7,168.4,703.9,164
			z"/>
	</a>
	<a xlink:href="https://sotom591.github.io/#portfolio" >
		<path class="st11" d="M785.5,223.1c-2.9-0.1-4.8-2.6-4.5-5.6c1-10.4-10.9-22.5-9.5-33.9c4.1-33.3,6.1-47.1,30-64.8
			c0.1-0.1-8.9,9.5-8.8,9.4c1.3-1.9,14-19.6,42.4-25.5c2.5-0.5,5.1,0.6,6.4,2.8c4.1,6.9,12.4,22.5,12.1,36.8c0,0.1,0,0.1,0,0.2
			c-0.2,2.2-3.2,39.6-17.9,51.7C835.7,194.2,805.4,223.8,785.5,223.1z"/>
	</a>
	<g>
		<path class="st7" d="M378.4,547.6c-6.6,7.2-21.8-19.7-21.8-19.7c-0.3-0.1-0.5-0.3-0.6-0.7c5-9.4,10.9-18.7,18-26.5
			c4.9,5.1,9.8,31.2,9.8,31.2C384.5,538.8,378.4,547.6,378.4,547.6z"/>
		<path class="st7" d="M384.7,494.2c0,0,2,14.3,17.3,29.7c2.5,2.6,6.2,3.8,9.8,3.4c8.7-1,24.7-3.4,28.3-7.5
			c5.5-6.3,19.2-4.1,9.9-34.6c-1.8-6-7.9-8.4-14.3-7.9C410.7,479.1,378.7,489.1,384.7,494.2z"/>
		<path class="st7" d="M449.8,472.9c-1,1.3,4.3,1.4,11.6,1.4c2.3,0,1.3,4.2,2,4.7c6.8,5.4,17.2,9.9,21.7,8
			c5.9-2.5,37.3-8.2,37.5-33.1l-9.7-39.6c-0.2-1-1.3-1.6-2.2-1.5c-6.3,9.1-11.3,22.5-16.3,34.4c-1.2,2.9-3.2,5.6-5.9,8.1
			c-3.5,4.1-8.7,7.5-17.4,10.5c0,0-0.1,0-0.1,0L449.8,472.9z"/>
		<path class="st7" d="M407.5,556.7c-1.6-1.2-1.4-3.6,0.4-4.6c11.8-6.8,51.7-29.6,53.7-27.7c2.3,2.3,7.5,27.8,0,34.1
			s-20.2,8-26.5,10.8C429.9,571.7,414.2,562,407.5,556.7z"/>
		<path class="st7" d="M486.4,499.8c0,0,20.7-17,27.6-13.6c6.9,3.4,25.3,4.5,28.2,17c2.9,12.5,1.3,28.5-3.5,29.6
			C514.8,538.1,482.8,502.7,486.4,499.8z"/>
		<path class="st7" d="M502,550.1c0.9-0.4,1.6-1.1,2.5-1.4c5.6-2,26.4-9,28.6-4.9c2.5,4.8,12,19.1,8.8,25.1s-24.8,15.9-27.8,16.4
			c-3.1,0.5-23.4-0.7-27-5.7C486.3,578.2,488,557,502,550.1z"/>
		<path class="st7" d="M602.2,576.5c-2.6-5.5-25.8-11.7-31.4-11.5c-6.5,0.2-4,27-4,27c0.2,2.6,16.2,11.5,26.2,13.6
			c1.9,0.4,3.5-0.7,4.1-2.2v0l-1-5.2c0-0.2-0.1-0.4-0.1-0.7c-0.4-3.1,0.2-7.1,1.6-11c0,0,0,0,0,0c0.7-2,1.7-4,2.9-5.8c0,0,0,0,0-0.1
			L602.2,576.5z"/>
		<path class="st7" d="M608,557.2C608,557.2,607.9,557.2,608,557.2c-0.9,2.4-1.8,4.2-2.9,5.2c-6.2,5.9-52.9-39.4-49.2-49.2
			c3.7-9.8,18.8-32.1,21.9-26.7c1.1,1.9,22.8,28.7,32.2,35.9c2.3,1.8,3.5,4.5,3.2,7.4c-0.2,1.8-0.4,3.9-0.8,6.2c0,0.1,0,0.1,0,0.2
			L608,557.2z"/>
		<path class="st7" d="M614.8,485.1c-3.5-0.1-51.9-37.2-52.1-39.9c-0.2-2.2,0.9-12.7,5.5-18.2c1.7-2,4.7-2.5,6.9-1
			c6.2,4,20.2,13,21.6,13.5c4.8,1.7,8.3,4.6,11,8.2c0.2,1.8,0.4,3,0.7,3.5c0.7,1.3,1.4,2.6,1.5,4.1
			C610.8,461.9,613.1,473,614.8,485.1z"/>
		<path class="st7" d="M583,399.6c0,0,20-42,23-38.6c2.9,3.4,1,60.2,0,63.6C605,428.1,584,412.1,583,399.6z"/>
		<path class="st7" d="M564.1,408.2c-5.4,0-2-58.3,10.2-52.3c8.2,4,4.6,26.1,4.6,26.1s0.1,13.6-4.6,17.6
			C569.6,403.6,576.8,408.2,564.1,408.2z"/>
		<path class="st7" d="M608.4,331.4L608.4,331.4c-0.1,1.7-0.2,3.4-0.3,5.3c0,0,0,0,0,0c0,0,0,0,0,0.1c-1,1.5-2.1,3-3.2,3.8
			c-2.2,1.5-25.4-7.6-24.1-13.7c0,0,4.9-29.4,19.4-34.4c4.4-1.5,6.5,2.2,7.6,8v0c0.6,3.3,0.8,7.2,0.8,11.2c0,0.1,0,0.1,0,0.2
			C608.7,319.4,608.2,327.3,608.4,331.4z"/>
		<path class="st7" d="M582.2,254.6c-1.7,0.9-17.2,25.9-12.7,38.4c4.6,12.5,0.8,3.4,4.4,10.2s13.2-14.3,13.2-14.3
			c2.4-0.6,6.2-21.4,2.5-27.8c-4.9-8.3-4.6-5.7-4.6-5.7L582.2,254.6z"/>
		<path class="st12" d="M555.7,381.8c0-0.1,0.1-0.5,0.1-1C555.8,380.9,555.8,381.1,555.7,381.8z"/>
		<path class="st7" d="M564.3,334.7c-0.1,0.6-7,18.2-6.4,31.4v0c0,0,0,0,0,0.1c-0.1,1.4-1.6,11.4-2.1,14.7c-0.2,0-2.8,9.1-3.5,12.1
			c-0.7,3-7.5,7-12.4,4.5c4.5-3.1,7.6-8.2,9.7-17.9c4-18.2,6.3-54,5.8-60.2c-0.3-3-0.5-4.9-0.6-5.9v0c-0.4-1.2-5.1-23-9-45
			c-1.8-13.9-3.3-26.6-4.2-33.8c-0.1-0.6,0.8-0.8,2.8,6.1l3.8,12.9l0,0.1l0,0.1l0,0.1c0.8,2.3,7.4,24.4,7.4,24.7
			C560.2,319.6,565.5,327.9,564.3,334.7z"/>
		<path class="st12" d="M557.4,368.9l0.6-2.8L557.4,368.9z"/>
		<path class="st6" d="M559,360.8c-1.7,8.1,0.7-3.4-1.7,8.1c-2.4,11.5,2.4-11.5,0,0"/>
		<path class="st7" d="M531.5,425.1c0.5,0.4,15.5-3.5,16.7,2.8c1.2,6.2,8.9,16.6,3.6,22.2s-8.2,12.4-8.2,14.1
			c0,1.7-7.5-0.6-12.1-9.1S527.5,421.8,531.5,425.1z"/>
		<path class="st7" d="M542.6,485.7c0,0,3.5,9.2,9.2,8c5.6-1.1,13.8-3.1,14.6-8.7c0.8-5.5-5.3-25-9.7-20.4s-11.9,4-13.1,10.3
			C542.5,481.3,542.6,485.7,542.6,485.7z"/>
		<path class="st7" d="M374,573.7c-0.6,5.4-11.5,8.2-11.5,8.2H358c1-6.1,2.1-13.2,3.1-21.5c0,0,0,0,0,0c0,0.1-0.1,0.2-0.3,0.4
			c0.6-1,1.2-2,1.8-2.8c5.6-7.5,6.3,1.9,11.5,0.2C379.2,556.3,374.6,568.2,374,573.7z"/>
		<path class="st7" d="M478.3,523.3c-1.7-1-3.8,0.2-3.9,2.1c-0.3,6-3.4,13.1,2,17.2c6.9,5.2,11.3,7.5,14.4,6.3
			c2.5-0.9,8.8-2.2,10.9-10.5c0.1-0.4,0,0.2,0,0c0.1-2.7,6.6-7.6-4.6-8.5c0,0-1.1-0.6-1.8-1L478.3,523.3z"/>
		<path class="st12" d="M501.8,541.8"/>
		<path class="st7" d="M559,231.8c-0.3,0.5-6.3,5.7-1.1,13.6c5.2,7.9,8.5,9.2,8.5,9.2s11.1-6.8,9.9-11.4s7.1-8.6,0.1-11.4
			C569.5,229,561.5,227.6,559,231.8z"/>
	</g>
	<path class="st13" d="M656.1,143.1c-2,1.1-4.6,2-6.7,2.5c-0.8,0.2-1.5,0.3-2,0.4c-0.3,0-0.6,0-0.8,0c-0.3,0.2-0.6,0.5-0.7,0.8
		L641,159c1.1,0,18.8-3.7,18-5.3c0,0,0,0,0.1,0c3-1,5-1.7,5.6-1.9c1.2-0.4,1.2-3.3,0.9-5.9c-0.2-1.8-0.6-3.4-0.9-4.1
		c-0.3-0.8-0.9-1.2-1.6-1.5c0,0,0,0,0,0c-0.8-0.4-1.7-0.4-2.5-0.4L656.1,143.1z"/>
	<path class="st6" d="M803,42.1c-1.1,4.7,1.1-4.7,1.1-4.7"/>
	<path class="st14" d="M804.3,26.8c-0.5-0.7-0.2-2,0.7-1.9c7.9,0.7,41.6-1.8,46-6.8c3-3.4,24.3-20.1,23.3-16.3c-1,3.8,11,9,11,9
		s-17.6,14.4-16.9,20c0.7,5.5,3.1,15.8-2.1,27.8c-5.5,12.8-22.3,57.5-22.7,53.2c-0.5-4.9-3.4-5.9-5.7-6.9s19.5-48.5,13.5-54.7
		c-4.2-4.3-47.4,33.8-48.9,34.1l-2.4-2.6l-5.8-2.4c-1-0.4-1.2-1.8-0.3-2.5l52.3-42.4c-1.5-3.2-38.5-2.8-38.5-2.8L804.3,26.8z"/>
	<path class="st15" d="M786.7,125.4"/>
	<path class="st8" d="M667.9,39.5"/>
	<g>
		<path class="st16" d="M707.1,34.8c0-1.7-0.1-7.8-0.2-9.1c-0.1-2.8-0.3-3-0.3-3c0.5-0.1,1.1-0.3,1.5-0.3c1.3,0,2.2,0.7,2.2,1.8
			c0,1.1,0,4.2-0.1,7.1c1.1,0.1,2.8,0.1,4.5,0.1c1.9,0,4.1-0.1,5.4-0.1c0-2-0.1-3.9-0.1-5.5c-0.1-2.8-0.3-3-0.3-3
			c0.5-0.1,1.1-0.3,1.5-0.3c1.3,0,2.2,0.7,2.2,1.8c0,2.5-0.1,4.9-0.1,7.3c0,3.5,0.1,10.1,0.4,11.4c-0.7,0.1-1.1,0.3-1.9,0.3
			c-1.4,0-1.8-0.9-1.8-2.4c0-2.2,0.1-4.9,0.1-7.6c-1.3-0.1-3.1-0.1-4.8-0.1c-1.8,0-3.8,0.1-5.1,0.1v2.9c0,1.6,0.1,3.4,0.1,5.2
			c0,1.6-0.8,2-1.8,2c-0.6,0-1.2-0.2-1.9-0.3C706.8,42.8,707.1,42,707.1,34.8z"/>
		<path class="st16" d="M735.1,28c4.7,0,7.1,3.4,7.1,6.8c0,4.3-2.6,8.4-7.4,8.4c-4.7,0-7.1-3.5-7.1-7.3
			C727.7,31.8,730.2,28,735.1,28z M735.1,41.9c2.5,0,3.7-3.3,3.7-6.6c0-3-1.3-6-4-6c-2.5,0-3.7,3.1-3.7,6.2
			C731.1,38.7,732.4,41.9,735.1,41.9z"/>
		<path class="st16" d="M745.9,35.7c0-1.4-0.1-2.9-0.1-4.3c-0.1-2.8-0.6-3-0.6-3c0.5-0.1,0.9-0.3,1.4-0.3c1.3,0,2.2,0.7,2.2,1.6
			c0,0.4-0.1,0.7-0.1,0.7l0.1,0c0.5-1.4,2.6-2.3,4.4-2.3c2.6,0,3.7,1,3.8,2.3l0.1,0c0.6-1.4,2.6-2.3,4.4-2.3c3.7,0,4.1,2,4.1,4
			c0,2.1-0.1,4-0.1,6.5c0,1.3,0,3,1.4,3c0.6,0,1.1-0.4,1.1-0.4l0.1,0.1c0,0-0.7,1.8-3.1,1.8c-1.2,0-2.5-0.6-2.5-2.3
			c0-2.5,0.1-4.2,0.1-7.1c0-1.9-0.1-3.7-2.4-3.7c-2.6,0-3,3.7-3,5.1c0,0.1,0.1,5,0.1,5.1c0,2-0.6,2.5-1.1,3c-1-0.1-2.1-0.2-2.1-2.2
			c0-2.5,0.1-4.3,0.1-7.2c0-1.9-0.1-3.7-2.5-3.7c-1.2,0-2.8,1.4-2.8,4c0,2.6,0.1,4.5,0.1,7.3c0,1.6-0.8,2-1.8,2
			c-0.6,0-1.3-0.1-2-0.3C745.4,42.7,745.9,40.9,745.9,35.7z"/>
		<path class="st16" d="M776.1,28c3.7,0,5.2,2.2,5.2,4.1c0,2.9-3,3.9-5.4,3.9c-1.6,0-3.1-0.8-3.1-0.8l-0.1,0.1
			c0,3.4,1.6,5.8,4.5,5.8c2.3,0,4.4-1.6,4.4-1.6l0.1,0.1c0,0-1,3.7-5.7,3.7c-3.8,0-6.6-3-6.6-7.2C769.5,32,772,28,776.1,28z
			 M775.3,34.5c1.3,0,2.6-0.7,2.6-2.5c0-1.4-0.6-2.8-2.2-2.8c-2,0-3.1,3.5-3.1,4.6C772.7,34.1,774.1,34.5,775.3,34.5z"/>
	</g>
	<path class="st16" d="M725.1,151.5c0,0,0.2-0.9-1.1-3.5l-7.3-14.8c0,0,2.4-1.8,5.6-0.3c3.5,1.6,11.1,5,14.5,6.1
		c1.9,0.7,2.3,0.8,2.7,0.7l0.1,0.1c0,0-0.7,0.9-1.5,1.5c-1,0.8-2.2,1.2-3.3,0.6c-1.2-0.6-3-1.5-5.1-2.4c-0.7,0.6-1.5,1.2-2.3,1.8
		c-1.2,1-2.3,1.9-3.2,2.8c2.4,4.5,3.7,5.5,2,7c-0.4,0.3-1,0.5-1,0.5L725.1,151.5z M726,140.9c0.8-0.7,1.6-1.3,2.3-2
		c-3-1.3-6.3-2.7-8.7-3.6l-0.1,0.1c1.6,3.1,2.9,5.5,4,7.4C724.3,142.2,725.1,141.6,726,140.9z"/>
	<path class="st16" d="M736.8,133.9c-1.5-1.4-3.2-2.8-4.7-4.2c-1.9-1.7-5.8-5.2-6.7-5.2l0-0.1c2.9-2.3,3.9-1.6,6.4,0.6
		c1.6,1.5,3.1,3.2,3.1,3.2l0.1,0c0,0-0.7-2.2,2-4.5c2.6-2.1,6.3-1.5,8.9,0.8c3.6,3.2,4.1,7.4-0.4,11.1c-1.9,1.5-4.2,2.4-5.5,1.2
		C738.8,135.8,737.8,134.8,736.8,133.9z M743.6,127.2c-1.9-1.7-4.8-2.8-6.3-1.5c-1.4,1.1-1.5,2.8-0.1,4.4c0.8,0.9,1.8,1.8,2.7,2.6
		c1.8,1.6,3.4,3,4.9,1.8C747.3,132.5,746,129.3,743.6,127.2z"/>
	<path class="st16" d="M749.1,113.7c3.8-3.1,8.2-2.6,10.7-0.3c3.1,2.8,4,7.2,0,10.4c-3.8,3.1-8.3,2.4-11,0
		C745.9,121.2,745.2,117,749.1,113.7z M759.2,122.8c2-1.7,0.6-4.6-1.7-6.7c-2.2-2-5.4-3-7.6-1.3c-2,1.7-0.8,4.4,1.5,6.4
		C753.6,123.3,757,124.5,759.2,122.8z"/>
	<path class="st16" d="M762.5,111.1c-0.5-0.4-1.6-1.4-2.6-2.3c-0.9-0.7-1.8-1.3-2.4-1.4c0.3-0.4,0.6-0.8,0.9-1.1
		c1-0.8,2.4-1.1,3.3-0.4c1.7,1.6,2.9,2.8,5,4.6c1.7,1.5,3.3,2.7,5.1,1.3c2.1-1.8,0.2-4.5-1.6-6.1c-1.3-1.2-2.5-2.2-3.3-2.8
		c-1.6-1.1-2.3-1.4-2.3-1.4c0.3-0.4,0.6-0.8,0.9-1.1c1.1-0.9,2.5-1.2,3.3-0.4c2,1.8,3.7,3.6,6,5.7c0.8,0.7,2.2,1.9,3.3,1
		c0.5-0.4,0.6-1,0.6-1l0.2,0c0,0,0.7,1.6-1.2,3.2c-0.9,0.7-2.2,1.2-3.3,0.2c-0.1-0.1-0.2-0.2-0.2-0.2l-0.1,0.1c0,0,0.9,2.3-1.9,4.6
		c-3,2.4-5.2,1.5-6.9-0.1C764.4,112.9,763.6,112.1,762.5,111.1z"/>
	<path class="st16" d="M774.8,98.4c-1.8-1.6-2-1.5-3.1-1l-0.9-0.8c1-0.8,1.4-4.1,1-5l0.7-0.3l1.8,2.4l1.9-1.5c0.9-0.8,1-1.2,1-1.2
		c0.1,0.1,0.5,0.4,0.6,0.5c0.9,0.8,0.6,1.3-0.2,2c-0.3,0.2-1.9,1.5-1.9,1.5s2.4,2.3,4,3.7c2.1,1.8,4,3.2,5.8,1.8
		c1.1-0.9,1.4-2.9,1.4-2.9l0.2,0c0,0,1.6,2.8-1.1,5c-2.7,2.2-5.1,1.3-7.5-0.8C777.1,100.6,775.6,99.1,774.8,98.4z"/>
	<path class="st16" d="M791.8,206.2c-2.2-0.9-4.3-1.8-5.9-2.4c-2.6-1-2.9-1-2.9-1s0.5-0.8,0.7-1.4l1.5-3.3c2-4.2,5.5-4.9,8.1-3.7
		c3.9,1.7,4.3,5.9,2.9,9c-0.2,0.4-0.4,0.8-0.7,1.2c2.3,1,4.7,1.9,7.3,2.7c-0.2,0.6-0.2,1.2-0.5,1.7c-0.4,0.8-1.1,1.3-2.5,0.7
		L791.8,206.2z M794.7,203.3c1.2-2.7-0.3-5-2.5-6c-2.1-0.9-4.8-0.5-6.1,2.3l-0.3,0.7c0,0,4.3,2,6.5,2.9l1.9,0.8
		C794.5,203.9,794.6,203.6,794.7,203.3z"/>
	<path class="st16" d="M796.4,186.5c1.8-3.9,5.8-4.5,8.9-3.2c3.9,1.7,6.6,5.4,4.7,9.4c-1.8,3.9-5.9,4.5-9.3,3
		C797.1,194.1,794.6,190.5,796.4,186.5z M809,192c1-2.1-1.5-4.3-4.5-5.6c-2.7-1.2-6-1.3-7,0.9c-1,2.1,1.4,4.2,4.1,5.4
		C804.6,194,808,194.2,809,192z"/>
	<path class="st16" d="M807.6,180.8c-5.3-2.3-6.9-2.4-7-2.4c0.1-0.4,0.1-0.9,0.3-1.2c0.5-1.1,1.5-1.6,2.5-1.1
		c0.4,0.2,0.9,0.6,0.9,0.6l0.1-0.1c-1.3-1.4-1.6-3.4-1-4.6c0.4-0.9,1-0.9,1.5-0.7c0.6,0.2,1.3,0.7,1.7,1.1l0,0.1
		c-0.8,0.6-1.3,1-1.6,1.5c-0.8,1.8,1,3.2,3.9,4.5c5.1,2.2,6.3,2.1,6.3,2.1c-0.2,0.6-0.3,1.2-0.5,1.7c-0.4,0.9-1.1,1.3-2.7,0.6
		C810.6,182.2,809.1,181.4,807.6,180.8z"/>
	<path class="st16" d="M809,170.2c-2.2-1-2.4-0.8-3.1-0.1l-1.1-0.5c0.5-1-0.7-4.1-1.4-4.8l0.5-0.4l2.6,1.7l0.9-1.9
		c0.4-0.9,0.3-1.4,0.3-1.4c0.2,0,0.6,0.2,0.7,0.3c1.1,0.5,1.1,1,0.7,1.9c-0.1,0.3-0.9,1.8-0.9,1.8s3,1.4,5,2.3
		c2.6,1.1,4.9,1.9,5.7,0.1c0.5-1.1-0.1-3-0.1-3l0.2-0.1c0,0,2.6,2.1,1.3,4.9c-1.3,2.7-3.8,2.6-6.7,1.3
		C811.9,171.6,810,170.6,809,170.2z"/>
	<path class="st16" d="M828,168.9c-0.1,0.3-0.3,0.5-0.6,0.7l-0.1-0.1c0-1.7-0.7-2.8-10.7-7.2c-4.5-2-5.3-2.1-6.1-1.4l-0.5,0.5
		l-1.1-0.5c0.5-1,0.5-1.7-0.8-2.2c-3.9-1.7-4.8-4.4-3.5-7.1c1.1-2.3,3-3.3,4.8-2.5l0,0.1c-1.2,0.1-2.2,1.1-2.7,2.3
		c-0.6,1.2-0.6,3.3,2.2,4.5l0.7,0.3c0.3,0.1,1.2,0.6,1.2,0.6l0.8-1.7c0.4-0.9,0.3-1.4,0.3-1.4c0.2,0,0.6,0.2,0.7,0.3
		c1.1,0.5,1.1,1,0.7,1.9c-0.1,0.2-0.7,1.3-0.7,1.5c1,0.5,2,1,2.9,1.4c2.6,1.1,5.4,2.3,9.1,3.9C827.8,164.3,828.9,166.9,828,168.9z"
		/>
	<path class="st16" d="M815,146.8c1.8-3.9,5.8-4.5,8.9-3.2c3.9,1.7,6.6,5.4,4.7,9.4c-1.8,3.9-5.9,4.5-9.3,3
		C815.6,154.4,813.1,150.8,815,146.8z M827.5,152.2c1-2.1-1.5-4.3-4.5-5.6c-2.7-1.2-6-1.3-7,0.9c-1,2.1,1.4,4.2,4.1,5.4
		C823.1,154.3,826.5,154.4,827.5,152.2z"/>
	<path class="st16" d="M822.1,139.4c-2.4-1.1-4.8-2-6.5-2.7c-2.4-0.9-3.1-0.8-3.1-0.8l-0.1-0.1c0.7-1.5,1.7-2.8,3.3-2.1
		c2.6,1.1,5.3,2.4,8.1,3.6c2.3,1,4.7,2,7,2.9c0.9,0.4,1.8,0.5,2.2-0.3c0.2-0.5,0-1,0-1l0.1-0.1c0,0,1.3,1.3,0.4,3.3
		c-0.5,1-1.5,1.9-3.2,1.1C828.3,142.1,825.1,140.7,822.1,139.4z"/>
	<path class="st16" d="M829.3,134.4c-5.9-2.6-7-2.4-7-2.4c0.1-0.4,0.1-0.9,0.3-1.2c0.5-1,1.5-1.7,2.6-1.2c2.8,1.2,5.8,2.7,7.7,3.5
		c1.2,0.5,2.7,1.2,3.3,0c0.2-0.5,0-1,0-1l0.1-0.1c0,0,1.3,1.3,0.4,3.3c-0.5,1-1.5,1.8-3.1,1.2C832.2,135.7,830.8,135,829.3,134.4z
		 M818.2,130c-1-0.4-1.4-1.5-1-2.3c0.4-0.9,1.5-1.2,2.5-0.8c0.9,0.4,1.4,1.5,1,2.3C820.3,130,819.2,130.4,818.2,130z"/>
	<path class="st16" d="M827.7,119.5c1.8-3.9,5.8-4.5,8.9-3.2c3.9,1.7,6.6,5.4,4.7,9.4c-1.8,3.9-5.9,4.5-9.3,3
		C828.3,127.1,825.8,123.5,827.7,119.5z M840.3,124.9c1-2.1-1.5-4.3-4.5-5.6c-2.7-1.2-6-1.3-7,0.9c-1,2.1,1.4,4.2,4.1,5.4
		C835.9,127,839.3,127.1,840.3,124.9z"/>
</g>
</svg>
