<?xml version="1.0" encoding="utf-8"?>
<!-- Generator: Adobe Illustrator 23.0.1, SVG Export Plug-In . SVG Version: 6.00 Build 0)  -->
<svg version="1.1" id="Layer_1" xmlns="http://www.w3.org/2000/svg" xmlns:xlink="http://www.w3.org/1999/xlink" x="0px" y="0px"
	 viewBox="0 0 1366 768" style="enable-background:new 0 0 1366 768;" xml:space="preserve">
<style type="text/css">
	.st0{fill:none;}
	.st1{fill:#007475;}
	.st2{font-family:'Noteworthy-Light';}
	.st3{font-size:172px;}
</style>
<g>
	<rect x="386.65" y="313" class="st0" width="71.35" height="64.57"/>
	<path class="st1" d="M494.85,191.37c0,1.71-0.81,3.33-2.44,4.85c-1.63,1.52-3.1,2.99-4.4,4.42c-1.3,1.43-1.96,4.32-1.96,8.69
		c0.21,6.08,0.21,9.22,0,9.41c-5.44,40.67-8.15,78.67-8.15,114.02c0,18.63,0,27.65,0,27.08c0.87,13.5,4.13,21.09,9.78,22.8v2.85
		c-1.09,2.09-2.93,3.14-5.54,3.14c-13.69,0-21.84-11.69-24.45-35.06c-1.09-8.93-1.2-17.96-0.33-27.08l8.48-92.07
		c-8.02,25.65-16.05,51.31-24.07,76.96c-14.75,40.29-29.17,60.43-43.26,60.43c-6.29,0-12.8-3.51-19.52-10.55
		c-5.42-5.32-9.54-11.21-12.36-17.67c-6.72-15.01-13.67-35.82-20.82-62.43c-5.42-21.28-10.95-42.47-16.59-63.57l-1.95,4.28
		c-4.13,35.16-5.87,60.34-5.22,75.54l3.26,65.28c0.43,6.84,3.04,10.55,7.82,11.12c0.21,5.13-5,7.7-15.65,7.7
		c-9.78,0-14.67-15.68-14.67-47.03c0-14.25,0.87-35.49,2.61-63.71c1.74-28.22,2.61-49.46,2.61-63.71c0-3.04-0.33-5.42-0.98-7.13
		c-0.65-1.71-0.98-2.75-0.98-3.14c0-7.41,8.69-11.12,26.08-11.12c3.26,0,7.17,2,11.74,5.99c0.65,5.89,1.63,14.64,2.93,26.23
		c2.39,16.72,8.8,41.05,19.24,72.97c12.6,39.15,22.93,58.72,30.97,58.72c10.21,0,21.41-17.86,33.58-53.59
		c7.61-22.99,13.69-45.8,18.26-68.41c2.82-7.22,6.41-17.48,10.76-30.79c2.61-8.55,10.11-12.83,22.5-12.83c2.82,0,5.65,0.67,8.48,2
		C493.43,187.29,494.85,189.09,494.85,191.37z"/>
	<text transform="matrix(1 0 0 1 405.3672 440.6328)" class="st2 st3">M</text>
</g>
</svg>
